<svg width="340" height="123" xmlns="http://www.w3.org/2000/svg">
 <g>
  <title>background</title>
  <rect x="-1" y="-1" width="342" height="125" id="canvas_background" fill="none"/>
 </g>

 <g>
  <title>Layer 1</title>
  <g id="svg_2">
   <path fill="#7C0040" d="m158.63858,48.838c0.216,0 0.403,-0.118 0.492,-0.304l0.753,0l0,0.769c-0.186,0.09 -0.317,0.277 -0.317,0.497c0,0.305 0.246,0.556 0.553,0.556c0.305,0 0.551,-0.251 0.551,-0.556c0,-0.216 -0.124,-0.403 -0.305,-0.492l0,-0.774l0.769,0c0.089,0.186 0.279,0.314 0.499,0.314c0.305,0 0.551,-0.245 0.551,-0.549c0,-0.309 -0.247,-0.552 -0.551,-0.552c-0.218,0 -0.405,0.121 -0.495,0.302l-0.772,0l0,-0.747c0.186,-0.087 0.318,-0.277 0.318,-0.497c0,-0.306 -0.25,-0.554 -0.555,-0.554c-0.303,0 -0.551,0.248 -0.551,0.554c0,0.217 0.124,0.403 0.307,0.497l0,0.747l-0.746,0c-0.092,-0.186 -0.28,-0.313 -0.499,-0.313c-0.309,0 -0.553,0.245 -0.553,0.55c-0.002,0.306 0.242,0.552 0.551,0.552z" id="svg_3"/>
   <path fill="#7C0040" d="m160.13058,43.586c-0.777,0.331 -0.606,1.252 -0.663,1.524l1.387,0c-0.078,-0.282 0.149,-1.289 -0.724,-1.524z" id="svg_4"/>
   <rect x="170.015577" y="49.463002" fill="#7C0040" width="1.339" height="1.271" id="svg_5"/>
   <path fill="#7C0040" d="m173.65858,46.584c-0.428,0.305 -0.873,0.616 -1.271,0.94l1.319,0.921c0.424,-0.306 0.871,-0.605 1.26,-0.938c-0.436,-0.307 -0.871,-0.609 -1.308,-0.923z" id="svg_6"/>
   <path fill="#7C0040" d="m144.81758,34.085c-0.079,17.254 10.329,24.994 24.978,32.429c14.654,-7.435 25.06,-15.175 24.981,-32.429l0,-32.111l-49.959,0l0,32.111zm18.968,23.317l-7.291,0l0,-4.093l7.291,0l0,4.093zm-7.545,-4.86l0.5,-0.893l6.807,0l0.502,0.893l-7.809,0zm3.204,-12.401l0,-0.813l1.794,0l0,0.813l1.104,0l0,-0.813l1.356,0l-0.068,2.246l-0.674,0.854l-5.076,0l-0.703,-0.87l-0.049,-2.229l1.326,0l0,0.813l0.99,0l0,-0.001zm3.3,-8.701c0,0.001 0.001,0.001 0.002,0.002l0,0.001c-0.001,-0.001 -0.002,-0.002 -0.002,-0.003zm3.651,12.751c0.026,-0.329 0.104,-0.661 0.104,-1.013c0.228,-0.035 0.512,0 0.769,0l-0.047,1.013l2.144,0l0.068,-1.013l0.768,0l0.038,1.013l2.125,0c-0.01,-0.312 0.021,-0.69 -0.017,-1.013l0.633,0l0.089,1.013l2.229,0l-0.115,-1.013l0.919,0l-0.167,2.011l-12.37,0l-0.199,-2.011l0.921,0l-0.104,1.013l2.212,0zm2.139,-14.233l0.868,0l-0.006,-1.056c0,-0.459 -0.383,-0.251 -0.47,-0.214c0,-0.407 0.361,-0.573 0.47,-0.573c0,-0.239 0.154,-0.473 0.386,-0.556c0.23,0.083 0.384,0.316 0.384,0.556c0.107,0 0.472,0.166 0.472,0.573c-0.087,-0.037 -0.472,-0.245 -0.472,0.214l-0.004,1.056c0,0 0.407,0 0.869,0c0.458,0 0.251,-0.385 0.218,-0.474c0.407,0 0.571,0.361 0.571,0.474c0.24,0 0.468,0.15 0.557,0.382c-0.089,0.231 -0.317,0.383 -0.557,0.383c0,0.109 -0.165,0.471 -0.571,0.471c0.033,-0.085 0.24,-0.471 -0.218,-0.471l-0.869,0l0,1.925c0.501,0.126 0.943,0.335 1.398,0.602l-3.684,0c0.477,-0.267 0.982,-0.517 1.524,-0.591l0.003,-1.936l-0.868,0c-0.461,0 -0.253,0.386 -0.219,0.471c-0.406,0 -0.571,-0.361 -0.571,-0.471c-0.241,0 -0.471,-0.151 -0.559,-0.383c0.088,-0.231 0.318,-0.382 0.559,-0.382c0,-0.112 0.166,-0.474 0.571,-0.474c-0.035,0.089 -0.243,0.474 0.218,0.474zm3.815,3.887c1.811,1.804 2.219,4.184 2.316,6.704l-9.875,0c0.037,-2.041 0.42,-4.984 2.327,-6.704l5.232,0zm2.361,7.295l0.171,1.284c-0.188,0.011 -0.569,0 -0.569,0s0.086,0.677 0.134,1.008l-0.638,0l-0.086,-1.008l-2.126,0c0,0 0.038,0.64 0,0.991c-0.16,0.036 -0.388,0.011 -0.586,0.017l-0.021,-1.008l-2.324,0l-0.037,1.008l-0.571,0l0.039,-1.008l-2.335,0c-0.068,0.332 -0.095,1.008 -0.095,1.008l-0.608,0l0.105,-1.008l-0.589,0l0.151,-1.284l9.985,0zm3.684,-0.999l0,-0.813l1.794,0l0,0.813l0.991,0l0,-0.813l1.325,0l-0.047,2.229l-0.704,0.87l-5.078,0l-0.674,-0.854l-0.067,-2.246l1.358,0l0,0.813l1.102,0l0,0.001zm4.196,10.816l-6.418,0l0.752,-7.808l4.412,0l1.254,7.808zm-24.454,-7.807l4.424,0l0.739,7.808l-6.407,0l1.244,-7.808zm14.24,11.524l-0.732,0.72l-0.75,-0.72l0.46,0l0,-1.32l-1.339,0l0,1.32l0.458,0l-0.738,0.72l-0.745,-0.72l0.453,0l0,-1.32l-1.327,0l0,1.32c0.134,0.049 0.292,-0.008 0.448,0l-0.748,0.72c-0.252,-0.224 -0.486,-0.5 -0.734,-0.72l0.448,0l0,-1.32l-0.697,0c-0.012,-0.187 0.02,-0.375 0.031,-0.557l0.666,0l0,-1.509l-0.461,0l0.146,-0.558l0.332,0l0,-0.779c0,0 0.461,-0.837 0.929,-1.062l0.968,0l0,-0.332c0.175,-0.022 0.4,-0.022 0.572,0l0,0.332l1.012,0c0.402,0.239 0.695,0.66 0.899,1.046l0,0.796l0.349,0l0.146,0.558l-0.495,0l0,1.509l0.7,0l0.03,0.557l-0.729,0l0,1.32l0.448,0l0,-0.001zm2.267,-1.374l0.287,0l0,2.872l-1.708,0l-0.022,-3.588c-0.171,-1.658 -0.501,-3.388 -2.079,-4.338c-0.967,-0.455 -2.334,-0.398 -3.181,0.288c-0.9,0.787 -1.241,1.84 -1.489,2.911c-0.125,0.837 -0.209,1.678 -0.172,2.584l0,2.143l-1.708,0l0,-2.872c0.217,-0.006 0.427,-0.099 0.568,-0.214c0.144,-0.121 -0.066,-0.372 -0.066,-0.372c-0.313,-0.552 -0.671,-1.07 -0.938,-1.641l-0.483,-5.073l12.168,0l-0.473,5.094c-0.313,0.576 -0.637,1.146 -0.989,1.705c-0.036,0.229 -0.027,0.483 0.285,0.501zm8.336,4.102l-7.261,0l0,-4.093l7.261,0l0,4.093zm-7.549,-4.86l0.506,-0.893l6.807,0l0.503,0.893l-7.816,0zm-29.941,-49.899l48.615,0l0,31.963c-0.032,3.986 -0.89,8.441 -2.014,11.218l-22.194,-21.148l-7.15,6.737l0,0.001l-0.014,0.012c0,0 0,0 0,0l0.015,-0.014c0.022,-0.542 -0.301,-0.95 -0.703,-1.291c-0.276,0.226 -0.658,0.216 -1.021,0.241l-0.037,-0.025c-0.124,0.244 -0.033,0.547 0,0.807c0.347,0.364 0.815,0.599 1.336,0.635c-0.016,-0.235 -0.025,-0.479 -0.079,-0.692l0.017,-0.031c0.162,0.121 0.317,0.229 0.469,0.371l-9.27,8.739l-0.044,0.041c0,-0.001 -0.001,-0.001 -0.001,-0.001l-5.947,5.604c-1.459,-3.929 -1.931,-7.346 -1.978,-11.204l0,-31.963z" id="svg_7"/>
   <path fill="#7C0040" d="m180.80958,47.748c-0.216,0 -0.404,0.123 -0.494,0.304l-0.773,0l0,-0.749c0.185,-0.087 0.318,-0.279 0.318,-0.495c0,-0.308 -0.248,-0.557 -0.555,-0.557c-0.303,0 -0.551,0.249 -0.551,0.557c0,0.213 0.124,0.401 0.306,0.492l0,0.752l-0.749,0c-0.087,-0.188 -0.278,-0.315 -0.499,-0.315c-0.305,0 -0.553,0.247 -0.553,0.55c0,0.308 0.248,0.552 0.553,0.552c0.218,0 0.407,-0.118 0.495,-0.304l0.753,0l0,0.767c-0.187,0.094 -0.318,0.279 -0.318,0.499c0,0.307 0.249,0.556 0.553,0.556c0.305,0 0.549,-0.249 0.549,-0.556c0,-0.216 -0.122,-0.401 -0.303,-0.492l0,-0.775l0.768,0c0.089,0.186 0.282,0.317 0.499,0.317c0.305,0 0.553,-0.246 0.553,-0.552c0.002,-0.307 -0.246,-0.551 -0.552,-0.551z" id="svg_8"/>
   <rect x="168.121577" y="51.288002" fill="#7C0040" width="1.323" height="1.511" id="svg_9"/>
   <rect x="168.121577" y="49.463002" fill="#7C0040" width="1.323" height="1.271" id="svg_10"/>
   <rect x="170.015577" y="51.288002" fill="#7C0040" width="1.339" height="1.511" id="svg_11"/>
   <path fill="#7C0040" d="m164.50658,47.525l1.319,0.921c0.417,-0.314 0.845,-0.624 1.264,-0.938c-0.438,-0.306 -0.875,-0.61 -1.312,-0.924c-0.427,0.303 -0.873,0.618 -1.271,0.941z" id="svg_12"/>
   <path fill="#7C0040" d="m179.28858,43.586c-0.78,0.331 -0.607,1.252 -0.665,1.524l1.385,0c-0.076,-0.282 0.152,-1.289 -0.72,-1.524z" id="svg_13"/>
   <path fill="#7C0040" d="m165.68558,23.198l8.404,0c-1.759,-3.158 -2.313,-6.287 -2.289,-12.817c0.693,0.057 3.449,0.744 5.096,1.499l0,-6.885c0,0 -3.26,1.555 -7.012,1.53c-3.751,-0.024 -7.01,-1.53 -7.01,-1.53l0,6.885c1.648,-0.755 4.403,-1.442 5.096,-1.499c0.027,6.53 -0.531,9.659 -2.285,12.817zm-2.044,-12.499l0,-4.486c0,0 2.787,1.002 6.244,1.014c3.458,0.019 6.244,-1.014 6.244,-1.014l0,4.486c-1.464,-0.567 -4.633,-1.143 -5.061,-1.175c0.01,6.784 0.38,9.789 1.715,12.866l-5.791,0c1.336,-3.077 1.704,-6.082 1.713,-12.866c-0.428,0.033 -3.598,0.608 -5.064,1.175z" id="svg_14"/>
   <path fill="#7C0040" d="m178.20558,8.282c0.253,0.136 0.477,0.308 0.718,0.455c-0.303,0.172 -0.681,0.138 -0.977,0.346l0,0.036c0.424,0.422 0.968,0.542 1.451,0.818c-0.259,0.244 -0.628,0.346 -0.811,0.656c0.491,0.112 1.087,0.034 1.587,0.062c-0.173,0.288 -0.379,0.558 -0.431,0.886c0.458,0.073 0.854,-0.231 1.234,-0.475c0.017,0.087 0,0.19 -0.028,0.278c-0.06,0.226 -0.17,0.43 -0.257,0.639c0.425,-0.045 0.684,-0.465 1.113,-0.476c0.621,-0.123 1.302,-0.034 1.933,0l0.044,0.033c-0.406,0.174 -0.924,0.494 -0.941,1.001l0,0.123c0.138,-0.111 0.286,-0.277 0.458,-0.32c0.326,-0.109 0.69,0.043 1.017,-0.062l0.017,0.021c-0.061,0.473 0,0.948 0.2,1.336c0.067,-0.173 0.103,-0.345 0.196,-0.502l0.439,0.813c0.011,-0.029 -0.016,-0.182 0.02,-0.261c0.689,0.423 1.508,0.364 2.373,0.364c0.551,0.121 1.017,0.449 1.511,0.714c0.076,0 0.169,0.01 0.198,-0.075l0,-0.104c-0.398,-0.284 -0.838,-0.458 -1.218,-0.794c0.319,-0.054 0.586,0.137 0.836,0.301l0.442,0.335c0.345,-0.061 0.87,0.09 0.973,-0.36c-0.208,-0.768 -0.948,-1.381 -1.571,-1.904c-1.006,-0.796 -1.459,-0.885 -1.459,-0.885s0.199,-0.06 0.699,-0.216c0.526,-0.173 0.925,0.216 1.313,0.475l0.243,0.062c0.068,-0.294 -0.198,-0.537 -0.142,-0.829c0.312,0.254 0.686,0.438 1.099,0.414c0.103,-0.068 0.007,-0.206 -0.026,-0.303c-0.088,-0.181 -0.304,-0.345 -0.28,-0.553c0.477,0.027 0.945,0.137 1.391,-0.013c0.069,-0.047 0.138,-0.112 0.062,-0.186c-0.233,-0.14 -0.508,-0.191 -0.718,-0.423c0.441,-0.283 1.003,-0.404 1.375,-0.853c0,-0.052 0.035,-0.149 -0.054,-0.155c-0.285,-0.042 -0.596,0.006 -0.836,-0.121c0.405,-0.31 0.941,-0.625 1.208,-1.095l0,-0.081c-0.372,0.087 -0.725,0.275 -1.114,0.26c0.33,-0.562 0.536,-1.199 0.44,-1.904c-0.035,-0.075 -0.035,-0.156 -0.136,-0.15c-0.25,0.277 -0.295,0.69 -0.656,0.863c-0.017,-0.567 -0.215,-1.112 -0.682,-1.434c-0.027,-0.006 -0.037,0.027 -0.06,0.036c-0.037,0.528 -0.045,1.054 -0.374,1.448c-0.276,-0.574 -0.894,-1.093 -1.459,-1.385c-0.084,0.03 -0.169,-0.083 -0.231,0.016c0.103,0.25 0.317,0.455 0.431,0.697c0.536,0.904 0.733,2.27 0.182,3.228c-0.381,0.641 -1.036,1.183 -1.727,1.372c-0.234,-0.294 -0.199,-0.717 -0.562,-0.939c-0.109,-0.08 -0.258,-0.103 -0.396,-0.121c0.113,0.309 0.233,0.682 0.097,1.015c-0.167,0.273 -0.247,0.445 -0.458,0.445c-0.301,0.024 -0.146,-0.32 -0.215,-0.482c-0.105,-0.376 -0.373,-0.806 -0.778,-0.937c-0.043,0.014 -0.094,-0.015 -0.121,0.021c0.061,0.344 0.328,0.73 0.078,1.077c-0.225,0.335 -0.673,0.266 -1.009,0.214c-1.019,-0.188 -2.133,-0.983 -2.391,-2.043c-0.146,-0.556 -0.146,-1.216 0,-1.77c0.147,-0.57 0.414,-1.089 0.624,-1.632c-0.046,-0.123 -0.149,-0.07 -0.244,-0.085c-0.665,0.282 -1.173,0.966 -1.555,1.551c-0.431,-0.413 -0.318,-1.087 -0.398,-1.671c-0.153,-0.02 -0.24,0.165 -0.335,0.258c-0.241,0.407 -0.345,0.862 -0.422,1.337c-0.386,-0.276 -0.518,-0.7 -0.718,-1.08c-0.205,0.158 -0.092,0.509 -0.092,0.743c0.053,0.511 0.259,0.967 0.441,1.433l-0.028,0.02c-0.396,-0.072 -0.795,-0.174 -1.174,-0.305c-0.008,0.019 -0.017,0.025 -0.034,0.025c0.072,0.344 0.444,0.534 0.675,0.757zm11.021,5.393c0.138,0.068 0.355,0.128 0.345,0.318l-0.147,0.021c-0.092,-0.062 -0.182,-0.168 -0.214,-0.28l0.016,-0.059zm-2.976,-1.81c0.503,0 0.948,0.178 1.285,0.542l-0.612,0.061c-0.396,0.043 -0.621,-0.362 -0.872,-0.603l0.199,0z" id="svg_15"/>
   <path fill="#7C0040" d="m189.58258,30.4c-0.028,0.052 -0.028,0.146 0,0.198c0.095,0.055 0.198,0.009 0.276,-0.035c1.326,-1.315 2.071,-3.201 1.441,-5.038c-0.41,-1.075 -1.075,-2.035 -1.934,-2.921c-0.867,-0.928 -1.334,-3.173 -1.82,-4.256l0.191,0.129l0.624,0.721l0.041,-0.936c-0.51,-0.6 -1.267,-1.57 -1.267,-1.57l1.286,0.928c-0.082,-0.47 0.191,-0.83 -0.236,-1.057l-1.266,-1.117l0.018,-0.021c0.329,0.149 1.024,0.572 1.372,0.693c-0.21,-0.58 -0.546,-1.115 -1.006,-1.594c-0.521,0.04 -1.05,0.011 -1.518,-0.121c0.026,0.161 0.026,0.373 0,0.537c-0.304,-0.218 -0.667,-0.324 -0.903,-0.657c-0.034,0.12 -0.069,0.252 -0.137,0.354c-0.53,-0.563 -0.86,-1.239 -0.844,-2.054c-0.587,0.251 -1.162,0.547 -1.715,0.876c-0.148,0.162 -0.199,0.362 -0.259,0.562c0.13,-0.006 0.443,-0.106 0.573,-0.057l-0.792,0.639c-0.103,0.276 -0.2,0.563 -0.259,0.856c0.228,-0.095 0.692,-0.335 0.927,-0.355c-0.27,0.296 -0.788,0.663 -1.015,0.975c-0.095,0.336 -0.052,0.664 -0.034,1.026c0.215,-0.222 0.719,-0.55 0.992,-0.754c0,0 -0.818,1.201 -1.07,1.711c-0.496,0.278 -1.224,0.166 -1.7,-0.062l-2.846,-1.239c-0.744,-0.304 -1.5,-0.58 -2.313,-0.717c-0.114,0.448 0.182,0.848 0.475,1.16c0.929,0.015 1.624,0.599 2.36,1.059c0.408,0.252 0.842,0.399 1.303,0.52l-0.061,0.037l-0.644,0.041l0.825,0.598c0.39,0.043 1.061,0.02 1.434,0.104l-1.038,0.203l0.801,0.536c0.363,0.011 0.964,-0.22 1.312,-0.178c-0.192,0.13 -0.655,0.386 -0.853,0.497c0.261,0.244 0.572,0.442 0.859,0.645c0.214,0.041 0.363,-0.073 0.519,-0.148c0.65,-0.385 1.524,-1.149 2.236,-1.376c0,0 -0.916,0.987 -1.189,1.445l0.133,0.191c0.78,0.717 1.544,2.378 2.403,2.884c0.553,0.469 0.936,1.074 0.936,1.761c-0.485,-0.989 -1.57,-1.493 -2.532,-1.796c-1.034,-0.197 -2.177,-0.062 -3.029,0.494c-0.585,0.451 -0.614,1.223 -0.507,1.926c0.224,1.116 1.045,1.994 1.715,2.941c0.042,0.065 0.087,0.172 0.034,0.258c-0.079,0.166 -0.205,0 -0.312,0c-0.944,-0.564 -1.934,-1.242 -3.122,-0.962c-0.251,0.114 -0.564,0.382 -0.625,0.658c0.245,0.261 0.555,0.331 0.905,0.323c0.05,-0.046 0.127,0 0.18,-0.046c-0.011,-0.023 0.027,-0.032 0.043,-0.06c0.503,0.06 0.928,0.328 1.353,0.581c0.815,0.46 1.57,1.069 2.541,1.144c0.242,-0.031 0.501,-0.069 0.641,-0.303c0.114,-0.251 0.053,-0.535 0.036,-0.817c-0.105,-0.693 -0.441,-1.343 -0.313,-2.078c0.155,-0.539 0.737,-0.687 1.198,-0.8c0.398,-0.113 0.831,-0.146 1.24,-0.241l0.017,0.015c-0.66,1.006 -1.352,1.989 -1.396,3.25c0.139,1.328 1.621,1.973 2.652,2.432c0.573,0.287 1.467,0.479 1.545,1.285c0.146,0.691 0.026,1.946 -0.366,2.49c-0.433,0.581 -1.215,1.03 -1.318,1.763c0.355,0.338 0.963,0.361 1.404,0.196c0.236,-0.45 0.687,-0.711 1.181,-0.721c0.285,-0.183 0.184,-0.562 0.172,-0.838c-0.45,-1.381 0.965,-2.76 0.746,-4.098c-0.312,-0.624 -1.094,-0.563 -1.604,-0.938c-0.371,-0.312 -0.52,-0.779 -0.416,-1.281c0.305,-0.981 1.553,-1.525 1.9,-2.498c0.17,-0.434 0.215,-0.93 0.215,-1.438c0.26,0.622 0.208,1.444 0.045,2.096c-0.129,0.546 -0.418,1.023 -0.841,1.44z" id="svg_16"/>
   <path fill="#7C0040" d="m172.44458,13.803c0.288,0.349 0.652,0.574 1.042,0.695c0.173,-0.079 0.374,-0.09 0.564,-0.139c-0.052,-0.096 -0.129,-0.181 -0.183,-0.28c-0.286,-0.214 0.025,-0.908 -0.503,-0.797c-0.345,-0.008 -0.684,-0.008 -0.998,0.082c0.189,0.104 0.444,0.146 0.658,0.239c-0.052,0.077 -0.155,0.011 -0.214,0.055l-0.366,0.145z" id="svg_17"/>
   <path fill="#7C0040" d="m174.76858,14.359c1.501,0.185 2.724,1.039 3.958,1.882l1.896,1.399c0.077,0.016 0.139,0.087 0.201,0.119c-0.062,-0.738 -0.124,-1.484 -0.095,-2.254c-0.479,-0.072 -0.938,-0.186 -1.381,-0.322l-2.386,-0.979c-0.9,-0.337 -1.827,-0.643 -2.8,-0.826c0.026,0.4 0.305,0.711 0.607,0.981z" id="svg_18"/>
   <path fill="#7C0040" d="m173.20658,17.218c0.314,-0.042 0.644,-0.063 0.981,-0.058c-0.242,-0.338 -0.396,-0.764 -0.303,-1.199c-0.469,-0.067 -1.023,-0.067 -1.458,0.08c0.244,0.104 0.486,0.208 0.738,0.276c-0.242,0.088 -0.495,0.167 -0.721,0.303c0.219,0.254 0.497,0.446 0.763,0.598z" id="svg_19"/>
   <path fill="#7C0040" d="m178.76658,30.362c-0.363,-0.022 -0.745,-0.016 -1.021,-0.241c-0.409,0.349 -0.74,0.763 -0.705,1.32c0.157,-0.148 0.321,-0.262 0.485,-0.387l0.02,0.031c-0.054,0.214 -0.06,0.458 -0.079,0.692c0.519,-0.036 0.988,-0.272 1.333,-0.633c0.038,-0.262 0.123,-0.564 0,-0.806l-0.033,0.024z" id="svg_20"/>
   <path fill="#7C0040" d="m186.65958,39.028c-0.175,0.376 -0.313,0.763 -0.339,1.208c0.226,-0.071 0.356,-0.312 0.505,-0.484l0.017,0.023l-0.062,0.694c0.409,-0.054 0.817,-0.164 1.06,-0.521c0.061,-0.233 0.215,-0.451 0.182,-0.693c-0.48,0.045 -0.982,0.027 -1.363,-0.227z" id="svg_21"/>
   <path fill="#7C0040" d="m147.54858,8.705c-0.085,0.006 -0.052,0.104 -0.052,0.152c0.372,0.451 0.931,0.572 1.373,0.855c-0.208,0.231 -0.483,0.285 -0.717,0.423c-0.076,0.073 -0.007,0.14 0.062,0.182c0.448,0.153 0.915,0.044 1.389,0.019c0.026,0.208 -0.19,0.368 -0.274,0.551c-0.035,0.095 -0.13,0.234 -0.028,0.301c0.417,0.029 0.786,-0.153 1.097,-0.414c0.061,0.296 -0.208,0.536 -0.138,0.831l0.242,-0.062c0.388,-0.259 0.783,-0.646 1.31,-0.473c0.505,0.154 0.702,0.214 0.702,0.214s-0.456,0.089 -1.459,0.882c-0.623,0.527 -1.365,1.14 -1.573,1.907c0.107,0.45 0.633,0.3 0.978,0.359l0.438,-0.335c0.251,-0.163 0.519,-0.354 0.836,-0.3c-0.38,0.336 -0.818,0.508 -1.216,0.794l0,0.104c0.028,0.085 0.124,0.075 0.201,0.075c0.489,-0.267 0.957,-0.593 1.509,-0.713c0.862,0 1.683,0.058 2.373,-0.365c0.035,0.079 0.007,0.231 0.018,0.261l0.438,-0.813c0.098,0.157 0.13,0.329 0.201,0.502c0.197,-0.388 0.258,-0.865 0.197,-1.337l0.017,-0.019c0.328,0.106 0.692,-0.051 1.02,0.062c0.17,0.044 0.318,0.207 0.458,0.32l0,-0.125c-0.017,-0.507 -0.536,-0.829 -0.941,-1.001l0.043,-0.033c0.629,-0.034 1.312,-0.123 1.933,0c0.432,0.009 0.689,0.432 1.114,0.472c-0.088,-0.207 -0.202,-0.409 -0.26,-0.635c-0.026,-0.088 -0.045,-0.191 -0.026,-0.276c0.378,0.24 0.775,0.548 1.233,0.473c-0.052,-0.325 -0.257,-0.598 -0.43,-0.886c0.5,-0.028 1.097,0.048 1.589,-0.064c-0.182,-0.309 -0.554,-0.415 -0.814,-0.654c0.486,-0.278 1.03,-0.396 1.45,-0.818l0,-0.037c-0.291,-0.209 -0.67,-0.175 -0.974,-0.345c0.241,-0.149 0.467,-0.321 0.717,-0.457c0.233,-0.226 0.604,-0.413 0.674,-0.753c-0.017,0 -0.025,-0.009 -0.035,-0.025c-0.382,0.131 -0.778,0.231 -1.176,0.303l-0.022,-0.02c0.182,-0.466 0.387,-0.923 0.441,-1.429c0,-0.236 0.11,-0.587 -0.098,-0.745c-0.196,0.381 -0.326,0.804 -0.715,1.08c-0.079,-0.475 -0.181,-0.93 -0.422,-1.337c-0.095,-0.093 -0.183,-0.278 -0.336,-0.256c-0.079,0.583 0.035,1.258 -0.397,1.67c-0.38,-0.586 -0.89,-1.27 -1.554,-1.552c-0.095,0.015 -0.198,-0.038 -0.241,0.086c0.207,0.542 0.473,1.061 0.62,1.627c0.147,0.558 0.147,1.22 0,1.773c-0.26,1.06 -1.37,1.854 -2.388,2.044c-0.339,0.051 -0.787,0.123 -1.012,-0.215c-0.25,-0.347 0.017,-0.733 0.079,-1.079c-0.026,-0.034 -0.079,-0.008 -0.122,-0.02c-0.405,0.133 -0.672,0.562 -0.777,0.935c-0.068,0.164 0.088,0.509 -0.215,0.482c-0.213,0 -0.293,-0.169 -0.458,-0.441c-0.137,-0.335 -0.017,-0.706 0.094,-1.017c-0.136,0.019 -0.283,0.041 -0.396,0.12c-0.36,0.224 -0.328,0.648 -0.56,0.94c-0.691,-0.188 -1.348,-0.733 -1.726,-1.371c-0.555,-0.96 -0.356,-2.322 0.181,-3.229c0.112,-0.242 0.327,-0.448 0.431,-0.697c-0.067,-0.096 -0.15,0.018 -0.239,-0.014c-0.559,0.293 -1.183,0.812 -1.459,1.386c-0.327,-0.396 -0.336,-0.92 -0.369,-1.449c-0.027,-0.01 -0.038,-0.04 -0.06,-0.035c-0.469,0.32 -0.667,0.865 -0.683,1.43c-0.363,-0.169 -0.406,-0.583 -0.657,-0.86c-0.103,-0.006 -0.103,0.076 -0.136,0.15c-0.098,0.704 0.111,1.343 0.439,1.902c-0.39,0.018 -0.743,-0.17 -1.114,-0.258l0,0.081c0.268,0.47 0.801,0.785 1.209,1.093c-0.241,0.129 -0.553,0.076 -0.837,0.123zm2.813,5.31l-0.147,-0.021c-0.01,-0.189 0.208,-0.251 0.344,-0.319l0.019,0.061c-0.034,0.11 -0.12,0.216 -0.216,0.279zm3.175,-2.15l0.198,0c-0.25,0.24 -0.475,0.644 -0.87,0.604l-0.613,-0.062c0.336,-0.364 0.787,-0.542 1.285,-0.542z" id="svg_22"/>
   <path fill="#7C0040" d="m163.08458,16.759l-2.843,1.24c-0.477,0.229 -1.205,0.343 -1.701,0.062c-0.25,-0.51 -1.07,-1.708 -1.07,-1.708c0.274,0.201 0.777,0.531 0.992,0.751c0.02,-0.362 0.06,-0.69 -0.035,-1.026c-0.227,-0.313 -0.745,-0.676 -1.011,-0.975c0.233,0.019 0.7,0.261 0.926,0.355c-0.062,-0.293 -0.158,-0.579 -0.259,-0.858l-0.792,-0.635c0.13,-0.052 0.442,0.049 0.573,0.055c-0.06,-0.2 -0.113,-0.4 -0.262,-0.563c-0.552,-0.332 -1.126,-0.624 -1.714,-0.877c0.018,0.816 -0.314,1.492 -0.841,2.056c-0.07,-0.103 -0.106,-0.232 -0.14,-0.354c-0.236,0.335 -0.598,0.439 -0.904,0.659c-0.025,-0.168 -0.025,-0.376 0,-0.538c-0.468,0.13 -0.996,0.162 -1.517,0.119c-0.457,0.481 -0.797,1.017 -1.005,1.594c0.345,-0.119 1.039,-0.543 1.371,-0.69l0.018,0.018l-1.268,1.119c-0.427,0.226 -0.154,0.587 -0.231,1.057l1.284,-0.926c0,0 -0.759,0.97 -1.268,1.57l0.043,0.935l0.62,-0.72l0.191,-0.131c-0.486,1.082 -0.95,3.328 -1.818,4.254c-0.858,0.888 -1.526,1.85 -1.935,2.923c-0.631,1.839 0.113,3.723 1.443,5.038c0.075,0.044 0.182,0.089 0.274,0.035c0.027,-0.05 0.027,-0.148 0,-0.198c-0.424,-0.417 -0.71,-0.895 -0.839,-1.439c-0.166,-0.651 -0.217,-1.474 0.043,-2.098c0,0.51 0.044,1.004 0.217,1.438c0.347,0.973 1.595,1.519 1.897,2.496c0.105,0.503 -0.042,0.971 -0.414,1.283c-0.512,0.373 -1.292,0.311 -1.607,0.938c-0.214,1.338 1.2,2.717 0.749,4.098c-0.008,0.277 -0.113,0.655 0.172,0.838c0.496,0.007 0.948,0.269 1.179,0.721c0.443,0.167 1.05,0.139 1.406,-0.196c-0.104,-0.732 -0.884,-1.185 -1.318,-1.761c-0.393,-0.546 -0.513,-1.8 -0.363,-2.492c0.078,-0.807 0.97,-0.998 1.543,-1.283c1.033,-0.461 2.515,-1.105 2.651,-2.438c-0.04,-1.257 -0.735,-2.24 -1.395,-3.246l0.018,-0.014c0.408,0.094 0.841,0.128 1.241,0.242c0.459,0.111 1.04,0.26 1.196,0.798c0.131,0.735 -0.208,1.384 -0.313,2.078c-0.016,0.282 -0.076,0.566 0.037,0.817c0.138,0.233 0.398,0.271 0.643,0.303c0.97,-0.074 1.722,-0.686 2.539,-1.143c0.423,-0.254 0.851,-0.521 1.352,-0.582c0.019,0.025 0.051,0.036 0.043,0.062c0.053,0.044 0.132,0 0.183,0.044c0.345,0.006 0.659,-0.062 0.901,-0.325c-0.062,-0.274 -0.373,-0.543 -0.625,-0.656c-1.188,-0.281 -2.177,0.398 -3.12,0.961c-0.106,0 -0.236,0.169 -0.314,0c-0.052,-0.085 -0.007,-0.193 0.036,-0.257c0.669,-0.947 1.489,-1.824 1.715,-2.939c0.105,-0.707 0.08,-1.477 -0.51,-1.926c-0.851,-0.556 -1.994,-0.695 -3.028,-0.496c-0.959,0.302 -2.045,0.807 -2.532,1.796c0,-0.687 0.383,-1.292 0.938,-1.761c0.859,-0.506 1.623,-2.167 2.401,-2.882l0.134,-0.191c-0.272,-0.46 -1.19,-1.446 -1.19,-1.446c0.71,0.226 1.584,0.992 2.237,1.377c0.154,0.075 0.305,0.186 0.521,0.146c0.283,-0.201 0.598,-0.4 0.858,-0.645c-0.201,-0.113 -0.663,-0.366 -0.855,-0.497c0.348,-0.042 0.949,0.188 1.313,0.177l0.799,-0.537l-1.037,-0.202c0.373,-0.081 1.043,-0.062 1.436,-0.103l0.823,-0.598l-0.64,-0.043l-0.062,-0.035c0.461,-0.119 0.894,-0.268 1.301,-0.518c0.736,-0.461 1.433,-1.046 2.358,-1.06c0.294,-0.313 0.588,-0.712 0.478,-1.163c-0.816,0.138 -1.572,0.413 -2.317,0.718z" id="svg_23"/>
   <path fill="#7C0040" d="m166.42358,13.282c-0.529,-0.114 -0.218,0.583 -0.503,0.799c-0.052,0.098 -0.128,0.181 -0.182,0.277c0.191,0.05 0.392,0.061 0.564,0.139c0.39,-0.12 0.755,-0.346 1.04,-0.692l-0.365,-0.146c-0.059,-0.044 -0.165,0.022 -0.217,-0.055c0.217,-0.097 0.469,-0.136 0.66,-0.239c-0.312,-0.09 -0.649,-0.09 -0.997,-0.083z" id="svg_24"/>
   <path fill="#7C0040" d="m159.06258,15.505c0.024,0.77 -0.037,1.516 -0.094,2.255c0.058,-0.035 0.119,-0.106 0.197,-0.12l1.899,-1.399c1.233,-0.841 2.454,-1.699 3.955,-1.881c0.303,-0.271 0.58,-0.581 0.607,-0.982c-0.973,0.184 -1.901,0.488 -2.801,0.824l-2.385,0.981c-0.442,0.137 -0.904,0.252 -1.378,0.322z" id="svg_25"/>
   <path fill="#7C0040" d="m166.58158,17.218c0.267,-0.152 0.544,-0.344 0.76,-0.598c-0.225,-0.136 -0.476,-0.215 -0.717,-0.303c0.25,-0.068 0.493,-0.172 0.736,-0.276c-0.433,-0.147 -0.987,-0.147 -1.456,-0.08c0.095,0.436 -0.062,0.861 -0.305,1.196c0.337,-0.007 0.668,0.019 0.982,0.061z" id="svg_26"/>
   <path fill="#7C0040" d="m153.13158,39.03c-0.383,0.251 -0.886,0.271 -1.363,0.226c-0.037,0.242 0.122,0.462 0.182,0.693c0.243,0.356 0.651,0.467 1.06,0.519l-0.06,-0.692l0.017,-0.025c0.134,0.156 0.257,0.365 0.448,0.455l0.045,-0.04c-0.036,-0.416 -0.168,-0.784 -0.329,-1.136z" id="svg_27"/>
   <path fill="#7C0040" d="m204.76258,52.985c0.931,-1.667 1.421,-3.581 1.244,-5.676c-0.068,-0.607 -0.143,-1.243 -0.397,-1.733c-1.607,-1.073 -3.112,-2.731 -4.001,-4.454l-0.206,-0.554c-0.557,0.119 -1.175,0.108 -1.691,0.349c-1.9,0.633 -3.663,2.236 -4.518,4.21c-0.06,0.182 -0.126,0.364 -0.19,0.546c0.06,-0.184 0.113,-0.37 0.189,-0.546c1.17,-3.528 1.571,-7.062 1.571,-10.53l0,-34.597l-53.915,0l0,34.596c0,11.559 4.354,23.892 26.91,34.092c15.214,-6.882 22.191,-14.731 25.12,-22.656c-0.115,0.416 -0.192,0.842 -0.216,1.277c1.142,-0.125 2.222,0.131 3.113,0.76l-0.891,0.933l-2.746,3.098c-1.906,2.521 -4.079,4.935 -4.443,8.13c0.023,0.575 -0.068,1.207 0.161,1.697c1.116,-0.019 1.987,0.176 2.918,0.604c-3.302,2.587 -6.677,4.53 -10.354,6.056c-3.627,1.512 -8.134,2.229 -12.651,2.227c-4.517,-0.002 -9.024,-0.715 -12.653,-2.227c-3.676,-1.525 -7.049,-3.469 -10.351,-6.056c0.929,-0.428 1.802,-0.622 2.917,-0.604c0.229,-0.49 0.135,-1.122 0.163,-1.697c-0.365,-3.195 -2.539,-5.608 -4.442,-8.13l-2.75,-3.098l-0.89,-0.933c0.89,-0.629 1.971,-0.885 3.115,-0.76c-0.161,-2.907 -2.479,-5.542 -5.05,-6.393c-0.515,-0.24 -1.134,-0.229 -1.692,-0.349l-0.204,0.554c-0.887,1.723 -2.395,3.381 -4.001,4.454c-0.255,0.49 -0.332,1.126 -0.399,1.733c-0.179,2.095 0.315,4.009 1.246,5.676c-1.549,1.003 -4.147,1.963 -4.113,4.36c-0.051,0.868 0.339,1.549 0.686,2.246c2.057,3.709 5.059,7.012 8.402,9.832l3.627,2.71c10.772,7.257 19.993,8.374 26.391,8.374c6.86,0 15.619,-1.117 26.388,-8.374l3.63,-2.71c3.345,-2.82 6.344,-6.123 8.404,-9.832c0.345,-0.697 0.733,-1.378 0.683,-2.246c0.035,-2.397 -2.565,-3.357 -4.114,-4.359zm-35.004,14.641c-7.891,-3.985 -26.039,-11.719 -25.933,-33.042l0,-33.605l51.961,0l0,33.605c0.009,21.323 -18.137,29.057 -26.028,33.042zm28.379,-25.228c0.713,-0.238 1.49,-0.024 1.896,0.677c0.28,0.443 0.17,1.142 0,1.604c-0.627,-0.335 -1.823,-1.742 -1.823,-1.742s-0.387,0.238 -0.554,0.304c0.472,2.245 -0.834,2.076 -1.179,1.953c-0.173,-0.133 -0.286,-0.383 -0.361,-0.595c0.44,-0.87 1.253,-1.623 2.021,-2.201zm-2.502,4.314c0.057,-0.108 -0.118,-0.169 0,-0.248c1.031,0.221 1.851,-0.595 2.418,-1.403c0.195,-0.312 0.269,-0.674 0.406,-1.011l0.086,0c0.415,0.397 0.775,0.916 1.242,1.181c-0.268,0.727 -0.753,1.355 -1.328,1.953c-0.87,-0.339 -1.785,-0.572 -2.824,-0.472zm-2.912,8.263l1.904,-2.539l3.266,-3.77c1.626,-1.466 2.944,-3.133 3.231,-5.21c-0.016,-0.692 -0.194,-1.393 -0.846,-1.738l-0.363,-0.126c0.27,-0.136 0.616,-0.257 0.965,-0.294c0.651,1.978 2.333,3.769 4.121,4.782c0.591,2.122 0.083,4.509 -1.008,6.27c-0.604,-0.518 -1.16,-0.988 -1.295,-1.776c-0.067,-0.178 -0.092,-0.444 -0.322,-0.471c-1.979,0.018 -3.315,1.652 -4.763,3.009c-1.854,1.821 -3.124,3.922 -4.646,5.848c-0.498,0.399 -0.963,1.02 -1.658,0.797c-0.332,-0.148 -0.354,-0.5 -0.439,-0.797c0.187,-1.516 1.066,-2.736 1.853,-3.985zm-2.258,6.445l-0.042,-0.469c2.441,1.105 3.239,-1.778 4.204,-2.926c1.346,-1.984 2.852,-4.009 4.678,-5.676c0.383,0.104 0.796,0.458 0.847,0.885c0.058,0.313 -0.075,0.642 -0.161,0.936c-1.201,2.945 -3.731,5.498 -6.174,7.71c-1.006,-0.399 -3.21,-0.477 -3.352,-0.46zm-41.389,0c-0.145,-0.017 -2.348,0.061 -3.351,0.46c-2.445,-2.212 -4.976,-4.765 -6.175,-7.71c-0.087,-0.294 -0.22,-0.622 -0.162,-0.936c0.051,-0.427 0.465,-0.78 0.847,-0.885c1.827,1.667 3.333,3.691 4.679,5.676c0.964,1.147 1.761,4.031 4.205,2.926l-0.043,0.469zm-5.17,-14.956c0.118,0.079 -0.057,0.14 0,0.248c-1.04,-0.1 -1.955,0.133 -2.825,0.472c-0.578,-0.598 -1.058,-1.227 -1.33,-1.953c0.467,-0.265 0.83,-0.783 1.243,-1.181l0.087,0c0.134,0.337 0.21,0.699 0.407,1.011c0.565,0.808 1.386,1.624 2.418,1.403zm-2.504,-4.066c0.77,0.578 1.582,1.331 2.023,2.201c-0.077,0.212 -0.189,0.462 -0.366,0.595c-0.343,0.123 -1.647,0.292 -1.176,-1.953c-0.167,-0.065 -0.553,-0.304 -0.553,-0.304c-0.001,0 -1.199,1.407 -1.823,1.742c-0.17,-0.463 -0.281,-1.161 0,-1.604c0.404,-0.702 1.184,-0.916 1.895,-0.677zm-6.863,3.682c1.786,-1.014 3.469,-2.805 4.12,-4.782c0.349,0.037 0.696,0.158 0.966,0.294l-0.363,0.126c-0.651,0.346 -0.83,1.046 -0.846,1.738c0.289,2.077 1.607,3.744 3.231,5.21l3.267,3.77l1.902,2.539c0.786,1.249 1.666,2.469 1.854,3.984c-0.085,0.297 -0.112,0.648 -0.441,0.797c-0.694,0.223 -1.158,-0.397 -1.658,-0.797c-1.523,-1.926 -2.792,-4.026 -4.646,-5.848c-1.445,-1.356 -2.782,-2.991 -4.761,-3.009c-0.23,0.026 -0.255,0.293 -0.324,0.471c-0.133,0.788 -0.694,1.259 -1.292,1.776c-1.092,-1.76 -1.6,-4.147 -1.009,-6.269zm73.329,12.284c-4.612,8.397 -12.65,14.031 -20.518,17.708c-5.144,2.174 -10.736,3.462 -16.633,3.469c-0.316,0.011 -0.631,0.018 -0.948,0.02c-0.316,0.005 -0.63,-0.009 -0.948,-0.02c-5.896,-0.007 -11.489,-1.295 -16.633,-3.469c-7.867,-3.676 -15.905,-9.31 -20.516,-17.708c-0.364,-0.816 -0.042,-1.748 0.322,-2.459c1.073,-1.239 2.402,-1.844 3.67,-2.583c-0.644,1.078 -1.378,2.105 -2.257,2.967c0.05,0.046 0.083,0.117 0.162,0.091c1.842,-1.36 3.393,-3.359 4,-5.517c0.439,0.17 0.88,0.312 1.294,0.556c-0.288,0.189 -0.662,0.351 -0.813,0.716c-0.516,0.809 -0.119,1.845 0.321,2.548c2.089,3.138 4.738,6.044 7.718,8.464c5.904,4.431 12.555,7.821 19.661,8.354c1.405,0.104 2.738,0.161 4.019,0.161c1.281,0.003 2.616,-0.057 4.016,-0.161c7.109,-0.533 13.76,-3.924 19.665,-8.354c2.98,-2.42 5.626,-5.326 7.716,-8.464c0.441,-0.703 0.838,-1.739 0.322,-2.548c-0.154,-0.365 -0.523,-0.526 -0.812,-0.716c0.415,-0.243 0.854,-0.386 1.295,-0.556c0.609,2.157 2.158,4.156 4.001,5.517c0.078,0.026 0.11,-0.045 0.159,-0.091c-0.877,-0.861 -1.614,-1.889 -2.257,-2.967c1.27,0.739 2.597,1.344 3.672,2.583c0.364,0.711 0.683,1.643 0.322,2.459z" id="svg_28"/>
   <path fill="#7C0040" d="m162.55358,73.109c-0.145,-0.084 -0.64,-0.312 -1.132,-0.432c-0.565,-0.141 -1.101,-0.192 -1.779,0.054c-0.571,0.209 -1.106,0.684 -1.294,1.452c-0.177,0.719 0.096,1.461 0.736,1.999c0.398,0.33 1.003,0.505 1.21,0.557c0.875,0.217 1.499,0.121 1.652,0.046l0.138,-0.217c-0.455,0.138 -0.977,0.078 -1.399,-0.022c-1.181,-0.292 -1.854,-1.436 -1.584,-2.525c0.213,-0.87 1.038,-1.45 2.055,-1.2c0.72,0.178 1.144,0.706 1.188,0.979c-0.006,0.099 -0.056,0.366 -0.081,0.473l0.117,0.071c0.137,-0.529 0.313,-1.104 0.549,-1.697l-0.134,-0.004c-0.036,0.059 -0.189,0.401 -0.242,0.466z" id="svg_29"/>
   <path fill="#7C0040" d="m166.57458,73.563l0.016,0.127c0.164,0.024 0.461,0.103 0.559,0.136c0.019,0.146 -0.057,0.881 -0.103,1.325l-0.027,0.266c-0.233,0.015 -2.235,-0.219 -2.379,-0.231l0.028,-0.275c0.054,-0.498 0.145,-1.169 0.185,-1.323c0.093,-0.011 0.401,-0.027 0.562,-0.021l0.043,-0.117c-0.093,0.003 -0.583,-0.036 -0.938,-0.071c-0.362,-0.04 -0.908,-0.106 -1.004,-0.132l0.017,0.127c0.142,0.027 0.493,0.108 0.593,0.139c0.004,0.192 -0.103,1.271 -0.122,1.452l-0.054,0.537c-0.048,0.437 -0.153,1.399 -0.202,1.664c-0.111,0.011 -0.471,0.029 -0.606,0.019l-0.043,0.117c0.17,0.006 0.71,0.05 1.009,0.082c0.245,0.025 0.811,0.096 0.929,0.117l-0.014,-0.12c-0.116,-0.018 -0.396,-0.089 -0.549,-0.138c0,-0.213 0.053,-0.949 0.112,-1.535l0.024,-0.199c0.083,-0.011 2.119,0.096 2.387,0.115l-0.033,0.331c-0.062,0.605 -0.139,1.334 -0.192,1.524c-0.107,0.012 -0.489,0.021 -0.576,0.021l-0.041,0.119c0.196,0.008 0.735,0.053 0.979,0.08c0.272,0.026 0.854,0.096 0.962,0.123l-0.017,-0.126c-0.114,-0.015 -0.457,-0.104 -0.572,-0.142c-0.016,-0.195 0.069,-1.143 0.137,-1.809l0.041,-0.399c0.018,-0.154 0.149,-1.331 0.192,-1.445c0.166,-0.003 0.474,-0.021 0.589,-0.021l0.048,-0.116c-0.105,0 -0.588,-0.036 -0.958,-0.073c-0.357,-0.042 -0.887,-0.108 -0.982,-0.128z" id="svg_30"/>
   <path fill="#7C0040" d="m172.03258,73.646l0.044,0.122c0.15,0.003 0.497,0.035 0.632,0.055c0.03,0.188 0.093,1.237 0.1,1.423l0.023,0.527c0.032,0.694 0.051,1.199 -0.27,1.508c-0.205,0.19 -0.473,0.294 -0.88,0.308c-0.672,0.029 -1.251,-0.362 -1.306,-1.581l-0.034,-0.769c-0.023,-0.491 0.059,-1.222 0.072,-1.32c0.181,-0.041 0.439,-0.082 0.594,-0.105l0.024,-0.12c-0.144,0.014 -0.585,0.045 -0.851,0.058c-0.442,0.018 -0.81,0.021 -0.973,0.018l0.023,0.12c0.156,0.017 0.335,0.035 0.458,0.061c0.022,0.16 -0.094,0.781 -0.069,1.297l0.04,0.898c0.046,1.006 0.669,1.719 1.957,1.671c0.613,-0.025 1.004,-0.21 1.278,-0.454c0.46,-0.412 0.489,-0.968 0.46,-1.616c-0.01,-0.208 -0.035,-0.485 -0.044,-0.709l-0.014,-0.273c-0.007,-0.154 -0.074,-0.879 -0.06,-0.964c0.146,-0.038 0.303,-0.068 0.397,-0.096l0.03,-0.121c-0.098,0.012 -0.402,0.04 -0.7,0.051c-0.356,0.011 -0.789,0.017 -0.931,0.011z" id="svg_31"/>
   <path fill="#7C0040" d="m178.58958,72.935c0.146,-0.053 0.342,-0.134 0.412,-0.158l0.004,-0.123c-0.117,0.033 -0.585,0.129 -0.71,0.153c-0.125,0.021 -0.738,0.124 -0.848,0.13l0.05,0.114c0.162,-0.019 0.47,-0.029 0.585,-0.026c0.167,0.272 0.535,2.262 0.65,2.888c-0.207,-0.119 -1.307,-1.046 -1.484,-1.18c-0.115,-0.084 -1.514,-1.303 -1.673,-1.471c-0.438,0.104 -0.969,0.204 -1.284,0.275l0.046,0.111c0.214,-0.027 0.5,-0.047 0.634,-0.042c0.034,0.186 0.552,3.374 0.5,3.63c-0.125,0.062 -0.299,0.112 -0.455,0.164l0.003,0.123c0.164,-0.045 0.602,-0.137 0.766,-0.163c0.147,-0.028 0.738,-0.124 0.843,-0.129l-0.04,-0.113c-0.111,0.002 -0.542,0.04 -0.632,0.028c-0.109,-0.188 -0.721,-3.15 -0.724,-3.268c0.225,0.18 1.542,1.298 1.635,1.369c0.158,0.125 2.06,1.667 2.259,1.793c-0.009,-0.234 -0.397,-2.622 -0.429,-2.889c-0.02,-0.181 -0.137,-0.985 -0.108,-1.216z" id="svg_32"/>
   <path fill="#7C0040" d="m136.91858,61.329c-0.12,0.052 -0.276,0.14 -0.475,0.214c-0.28,-0.11 -0.656,-0.505 -1.015,-0.953c0.12,-0.118 1.085,-0.922 1.36,-1.14l0.088,-0.071c0.31,0.387 0.564,0.758 0.603,0.953c-0.09,0.072 -0.21,0.162 -0.309,0.235l0.034,0.113c0.162,-0.091 0.842,-0.503 0.933,-0.557l-0.085,-0.087c-0.07,0.041 -0.143,0.078 -0.228,0.109c-0.127,-0.076 -0.506,-0.489 -0.818,-0.876l0.093,-0.071c0.263,-0.21 1.144,-0.884 1.22,-0.924c0.191,0.242 0.688,0.98 0.617,1.166c-0.083,0.073 -0.289,0.23 -0.319,0.259l0.044,0.121c0.146,-0.103 0.893,-0.601 1.004,-0.657l-0.102,-0.086c-0.085,0.054 -0.175,0.103 -0.24,0.132c-0.127,-0.093 -0.973,-1.15 -1.086,-1.295c-0.165,-0.199 -0.459,-0.591 -0.626,-0.816l-0.078,0.095c0.071,0.119 0.261,0.42 0.311,0.522c-0.123,0.127 -0.828,0.71 -1.234,1.034l-0.207,0.168c-0.493,0.396 -1.333,1.039 -1.426,1.089c-0.129,-0.095 -0.373,-0.346 -0.434,-0.413l-0.112,0.053c0.15,0.169 0.443,0.52 0.564,0.672c0.225,0.282 1.007,1.293 1.09,1.441c-0.07,0.06 -0.15,0.129 -0.271,0.225l0.059,0.108c0.24,-0.161 1.001,-0.612 1.156,-0.681l-0.111,-0.082z" id="svg_33"/>
   <path fill="#7C0040" d="m141.43558,61.795c0.12,0.069 0.244,0.164 0.361,0.26l0.1,-0.071c-0.125,-0.112 -0.538,-0.515 -0.706,-0.688c-0.069,-0.066 -0.396,-0.42 -0.508,-0.552l-0.083,0.091c0.086,0.112 0.202,0.264 0.267,0.378c-0.212,0.096 -3.225,1.446 -3.632,1.552c-0.131,-0.089 -0.273,-0.191 -0.402,-0.297l-0.098,0.071c0.101,0.089 0.38,0.354 0.483,0.462c0.116,0.117 0.476,0.501 0.591,0.638l0.072,-0.101c-0.1,-0.131 -0.217,-0.282 -0.289,-0.412c0.357,-0.271 1.353,-0.808 1.436,-0.844c0.171,0.131 0.839,0.757 0.982,0.898c-0.055,0.186 -0.639,1.332 -0.782,1.611c-0.155,-0.097 -0.311,-0.225 -0.464,-0.354l-0.106,0.063c0.117,0.102 0.581,0.561 0.697,0.677c0.216,0.219 0.611,0.641 0.652,0.697l0.076,-0.095c-0.106,-0.141 -0.206,-0.278 -0.297,-0.417c0.176,-0.547 0.616,-1.477 0.819,-1.902c0.276,-0.58 0.699,-1.437 0.831,-1.665zm-2.163,0.356c0.175,-0.09 1.149,-0.521 1.639,-0.75l0.009,0.006c-0.157,0.293 -0.636,1.269 -0.819,1.625l-0.829,-0.881z" id="svg_34"/>
   <path fill="#7C0040" d="m145.32858,67.897c-0.062,-0.036 -0.5,-0.382 -0.715,-0.555c-0.158,-0.127 -0.498,-0.407 -0.725,-0.608l-0.048,0.118c0.069,0.085 0.33,0.332 0.412,0.415c-0.05,0.088 -0.159,0.232 -0.27,0.371l-0.191,0.239c-0.182,0.223 -0.309,0.371 -0.373,0.434c-0.268,-0.057 -0.545,-0.251 -0.664,-0.344c-0.966,-0.783 -0.832,-2.219 -0.246,-2.949c0.577,-0.717 1.563,-0.877 2.344,-0.249c0.732,0.588 0.811,1.144 0.815,1.376c-0.067,0.116 -0.168,0.292 -0.283,0.447l0.059,0.142c0.322,-0.429 1.012,-1.183 1.181,-1.336l-0.121,-0.062c-0.092,0.089 -0.342,0.297 -0.418,0.354c-0.105,-0.174 -0.529,-0.609 -0.912,-0.921c-0.459,-0.37 -0.98,-0.651 -1.613,-0.7c-0.609,-0.049 -1.288,0.149 -1.801,0.784c-0.448,0.56 -0.532,1.327 -0.194,2.063c0.226,0.496 0.724,0.942 1.016,1.176c0.303,0.246 0.946,0.642 1.267,0.779c0.092,-0.138 0.282,-0.372 0.417,-0.537l0.115,-0.146c0.102,-0.126 0.347,-0.417 0.42,-0.48c0.116,0.055 0.384,0.234 0.428,0.263l0.1,-0.074z" id="svg_35"/>
   <path fill="#7C0040" d="m150.84858,68.921c0.143,0.062 0.344,0.128 0.415,0.156l0.083,-0.089c-0.11,-0.053 -0.523,-0.289 -0.63,-0.358c-0.11,-0.065 -0.631,-0.402 -0.721,-0.468l-0.037,0.117c0.13,0.097 0.365,0.293 0.453,0.374c-0.058,0.317 -1.109,2.041 -1.442,2.584c-0.077,-0.227 -0.275,-1.652 -0.32,-1.866c-0.03,-0.138 -0.26,-1.981 -0.263,-2.213c-0.396,-0.219 -0.862,-0.495 -1.142,-0.653l-0.044,0.117c0.181,0.122 0.407,0.294 0.507,0.386c-0.1,0.167 -1.842,2.887 -2.051,3.038c-0.132,-0.031 -0.3,-0.117 -0.448,-0.181l-0.079,0.097c0.147,0.076 0.537,0.3 0.68,0.389c0.127,0.077 0.631,0.401 0.712,0.464l0.051,-0.114c-0.091,-0.064 -0.436,-0.325 -0.493,-0.393c0.043,-0.218 1.564,-2.83 1.637,-2.92c0.049,0.286 0.284,1.997 0.309,2.114c0.033,0.195 0.421,2.611 0.484,2.841c0.149,-0.181 1.453,-2.218 1.607,-2.438c0.108,-0.153 0.556,-0.831 0.732,-0.984z" id="svg_36"/>
   <path fill="#7C0040" d="m152.75958,69.641l-0.047,0.113c0.119,0.075 0.285,0.173 0.383,0.261c-0.164,0.162 -2.505,2.498 -2.845,2.737c-0.154,-0.032 -0.324,-0.08 -0.482,-0.131l-0.066,0.099c0.124,0.043 0.479,0.197 0.616,0.262c0.153,0.065 0.625,0.297 0.78,0.384l0.03,-0.121c-0.141,-0.083 -0.304,-0.185 -0.417,-0.279c0.241,-0.378 0.978,-1.234 1.043,-1.294c0.208,0.06 1.057,0.407 1.241,0.487c0.014,0.193 -0.127,1.474 -0.161,1.787c-0.176,-0.038 -0.371,-0.102 -0.56,-0.172l-0.079,0.102c0.148,0.052 0.744,0.312 0.895,0.387c0.277,0.128 0.799,0.379 0.858,0.42l0.033,-0.118c-0.146,-0.09 -0.288,-0.183 -0.424,-0.285c-0.028,-0.572 0.053,-1.597 0.091,-2.068c0.057,-0.64 0.15,-1.594 0.191,-1.854c0.135,0.025 0.288,0.068 0.429,0.117l0.067,-0.105c-0.16,-0.058 -0.685,-0.288 -0.905,-0.391c-0.089,-0.042 -0.52,-0.254 -0.671,-0.338zm0.268,2.345l-1.086,-0.53c0.134,-0.144 0.888,-0.895 1.265,-1.282l0.01,0.003c-0.044,0.33 -0.144,1.411 -0.189,1.809z" id="svg_37"/>
   <path fill="#7C0040" d="m187.94758,72.652c-0.063,-0.146 -0.205,-0.501 -0.227,-0.597c0.103,-0.075 0.389,-0.228 0.433,-0.257l-0.019,-0.121c-0.059,0.036 -0.573,0.261 -0.826,0.371c-0.186,0.075 -0.597,0.243 -0.875,0.353l0.079,0.098c0.11,-0.024 0.449,-0.135 0.562,-0.169c0.055,0.082 0.129,0.252 0.198,0.416l0.12,0.279c0.111,0.266 0.183,0.444 0.208,0.532c-0.176,0.208 -0.477,0.363 -0.616,0.421c-1.146,0.486 -2.35,-0.306 -2.716,-1.168c-0.361,-0.852 -0.037,-1.797 0.885,-2.187c0.863,-0.363 1.389,-0.176 1.596,-0.072c0.072,0.111 0.177,0.289 0.264,0.462l0.15,0.015c-0.226,-0.488 -0.565,-1.45 -0.622,-1.671l-0.112,0.081c0.032,0.118 0.1,0.438 0.116,0.532c-0.204,0.009 -0.788,0.18 -1.243,0.371c-0.541,0.229 -1.033,0.562 -1.375,1.093c-0.331,0.514 -0.475,1.207 -0.156,1.951c0.279,0.662 0.919,1.1 1.729,1.146c0.539,0.035 1.169,-0.195 1.513,-0.338c0.36,-0.154 1.012,-0.532 1.281,-0.749c-0.073,-0.147 -0.194,-0.426 -0.275,-0.622l-0.072,-0.17z" id="svg_38"/>
   <path fill="#7C0040" d="m193.55858,70.953c-0.087,-0.215 -1.272,-2.323 -1.396,-2.565c-0.084,-0.163 -0.471,-0.879 -0.526,-1.104c0.124,-0.1 0.278,-0.245 0.339,-0.294l-0.045,-0.11c-0.095,0.068 -0.502,0.318 -0.611,0.383c-0.108,0.062 -0.651,0.367 -0.75,0.42l0.083,0.084c0.146,-0.069 0.433,-0.186 0.543,-0.223c0.251,0.198 1.283,1.937 1.607,2.485c-0.24,-0.04 -1.589,-0.532 -1.803,-0.595c-0.137,-0.038 -1.869,-0.703 -2.077,-0.808c-0.376,0.248 -0.838,0.529 -1.111,0.699l0.083,0.095c0.194,-0.101 0.449,-0.221 0.577,-0.261c0.099,0.163 1.682,2.978 1.718,3.236c-0.092,0.101 -0.241,0.212 -0.368,0.308l0.046,0.117c0.136,-0.096 0.52,-0.333 0.663,-0.418c0.126,-0.073 0.65,-0.37 0.747,-0.411l-0.08,-0.096c-0.099,0.042 -0.491,0.228 -0.58,0.249c-0.169,-0.143 -1.762,-2.711 -1.804,-2.819c0.273,0.095 1.893,0.689 2.007,0.721c0.191,0.063 2.508,0.858 2.738,0.907z" id="svg_39"/>
   <path fill="#7C0040" d="m201.22058,64.189c-0.316,-0.206 -2.516,-1.811 -3.029,-2.212c0.069,-0.105 0.251,-0.324 0.302,-0.387l-0.069,-0.1c-0.089,0.099 -0.438,0.429 -0.575,0.556c-0.15,0.135 -0.446,0.389 -0.591,0.504l0.104,0.069c0.088,-0.058 0.235,-0.156 0.345,-0.202c0.081,0.106 0.946,2.539 1.044,2.896c-0.426,-0.203 -2.212,-1.124 -2.688,-1.399c0.065,-0.093 0.158,-0.227 0.263,-0.35l-0.063,-0.106c-0.11,0.118 -0.438,0.435 -0.624,0.601c-0.225,0.204 -0.565,0.495 -0.629,0.541l0.107,0.063c0.057,-0.032 0.347,-0.234 0.478,-0.324c0.253,0.408 1.704,2.935 1.853,3.288c-0.068,0.111 -0.192,0.254 -0.253,0.33l0.056,0.117c0.131,-0.137 0.342,-0.342 0.455,-0.447c0.08,-0.072 0.584,-0.514 0.652,-0.561l-0.1,-0.073c-0.071,0.049 -0.341,0.234 -0.434,0.285c-0.515,-0.536 -1.342,-1.947 -1.825,-2.699l0.018,-0.015c0.198,0.114 2.932,1.513 3.291,1.668c-0.092,-0.36 -1.114,-3.166 -1.232,-3.533l0.014,-0.018c0.337,0.271 2.454,1.849 2.605,1.997c-0.078,0.091 -0.365,0.425 -0.423,0.482l0.073,0.097c0.118,-0.119 0.577,-0.557 0.772,-0.734c0.199,-0.185 0.463,-0.405 0.617,-0.528l-0.104,-0.072c-0.09,0.058 -0.279,0.19 -0.41,0.266z" id="svg_40"/>
   <path fill="#7C0040" d="m205.08958,59.639c-0.176,-0.092 -0.919,-0.682 -1.435,-1.109l-0.31,-0.254c-0.124,-0.097 -1.033,-0.857 -1.104,-0.953c0.088,-0.143 0.246,-0.406 0.312,-0.504l-0.072,-0.105c-0.06,0.088 -0.355,0.47 -0.592,0.759c-0.227,0.276 -0.575,0.684 -0.645,0.754l0.112,0.051c0.113,-0.119 0.34,-0.328 0.423,-0.385c0.133,0.061 0.704,0.527 1.052,0.812l0.203,0.167c-0.113,0.204 -1.409,1.749 -1.496,1.86l-0.22,-0.18c-0.384,-0.312 -0.895,-0.763 -1,-0.876c0.041,-0.086 0.197,-0.353 0.289,-0.483l-0.074,-0.101c-0.048,0.08 -0.35,0.466 -0.575,0.741c-0.234,0.283 -0.589,0.703 -0.659,0.771l0.11,0.05c0.101,-0.103 0.363,-0.349 0.446,-0.415c0.162,0.105 1.001,0.784 1.145,0.902l0.42,0.34c0.34,0.277 1.086,0.895 1.278,1.082c-0.051,0.103 -0.238,0.409 -0.316,0.515l0.071,0.104c0.101,-0.141 0.436,-0.563 0.625,-0.797c0.156,-0.192 0.526,-0.626 0.611,-0.714l-0.111,-0.054c-0.079,0.088 -0.291,0.281 -0.417,0.384c-0.179,-0.117 -0.765,-0.568 -1.22,-0.939l-0.155,-0.125c0.038,-0.077 1.242,-1.722 1.41,-1.932l0.258,0.21c0.471,0.384 1.039,0.848 1.168,0.999c-0.048,0.094 -0.249,0.424 -0.299,0.491l0.076,0.101c0.113,-0.162 0.448,-0.588 0.607,-0.779c0.17,-0.209 0.55,-0.654 0.627,-0.732l-0.109,-0.054c-0.079,0.084 -0.342,0.324 -0.434,0.398z" id="svg_41"/>
   <path fill="#7C0040" d="m195.84058,68.775c-0.088,-0.08 -0.66,-0.852 -1.102,-1.458l-0.208,-0.289c-0.418,-0.572 -0.806,-1.111 -0.856,-1.224c0.157,-0.139 0.354,-0.341 0.441,-0.417l-0.048,-0.119c-0.074,0.068 -0.467,0.371 -0.701,0.541c-0.368,0.27 -0.804,0.571 -0.9,0.628l0.097,0.083c0.093,-0.054 0.43,-0.244 0.536,-0.293c0.134,0.146 0.771,1.013 0.883,1.165l0.199,0.272c0.336,0.458 0.957,1.321 1.08,1.53c-0.084,0.089 -0.367,0.364 -0.444,0.427l0.051,0.108c0.134,-0.108 0.555,-0.431 0.712,-0.548c0.288,-0.208 0.78,-0.552 0.889,-0.617l-0.095,-0.078c-0.1,0.055 -0.4,0.231 -0.534,0.289z" id="svg_42"/>
   <path fill="#7C0040" d="m193.61158,64.393l-0.532,-0.27c-0.089,0.256 -0.537,1.479 -0.585,1.536l0.201,0.126c0.056,-0.111 0.784,-1.305 0.916,-1.392z" id="svg_43"/>
  </g>
  <g fill="#7C0040" id="svg_44">
   <path fill="#7c0040" d="m23.492,84.68435l0,-0.61c0,-0.194 -0.12,-0.232 -0.269,-0.232c-1.075,0 -1.974,0.166 -3.832,0.166c-1.226,0 -2.064,-0.166 -2.99,-0.166c-0.149,0 -0.27,0.131 -0.27,0.296l0,0.641c0,0.225 0.208,0.355 0.448,0.355c1.736,0 2.334,0.291 2.334,2.349l0,10.716c0,4.763 -2.542,6.499 -6.791,6.499c-3.262,0 -5.358,-1.35 -5.358,-5.213l0,-12.069c0,-1.962 0.628,-2.283 2.392,-2.283c0.27,0 0.419,-0.033 0.419,-0.26l0,-0.736c0,-0.23 -0.059,-0.296 -0.269,-0.296c-1.377,0 -2.275,0.166 -3.738,0.166c-1.44,0 -3.803,-0.166 -5.179,-0.166c-0.24,0 -0.389,0.101 -0.389,0.329l0,0.736c0,0.193 0.208,0.227 0.361,0.227c1.673,0 2.422,0.095 2.422,1.898l0,12.582c0,5.982 4.1,7.466 9.068,7.466c2.303,0 4.789,-0.838 6.553,-2.444c2.062,-1.9 2.305,-4.281 2.305,-7.08l0,-9.527c0,-2.122 0.12,-2.895 2.362,-2.895c0.393,0 0.421,-0.064 0.421,-0.449" id="svg_45"/>
   <path fill="#7c0040" d="m42.766,88.29635c-0.647,0 -1.271,0.127 -2.281,0.127c-0.793,0 -1.898,-0.127 -3.122,-0.127c-0.219,0 -0.363,0.052 -0.363,0.283l0,0.439c0,0.259 0.242,0.308 0.457,0.308c1.681,0 1.802,0.597 1.802,2.249l0,7.957c0,0.592 -0.046,1.78 -0.121,1.78c-0.072,0 -0.169,-0.129 -0.312,-0.334l-5.164,-6.433c-0.888,-1.087 -1.729,-2.168 -2.57,-3.253l-1.875,-2.405c-0.143,-0.181 -0.286,-0.592 -0.599,-0.592c-1.057,0 -1.996,0.127 -3.052,0.127c-0.816,0 -1.634,-0.127 -2.498,-0.127c-0.191,0 -0.264,0.127 -0.264,0.257l0,0.544c0,0.13 0.095,0.229 0.24,0.229c2.426,0 2.739,0.235 2.739,4.443l0,9.043c0,2.583 -0.819,2.685 -2.232,2.685c-0.172,0 -0.244,0.13 -0.244,0.284l0,0.44c0,0.201 0.096,0.309 0.433,0.309c1.128,0 2.257,-0.129 3.171,-0.129c0.89,0 1.296,0.129 2.305,0.129c0.266,0 0.36,-0.05 0.36,-0.232l0,-0.564c0,-0.236 -0.193,-0.236 -0.432,-0.236c-1.463,0 -1.921,-0.155 -1.921,-2.894l0,-9.346c0,-0.161 -0.049,-1.167 0.12,-1.167c0.144,0 0.338,0.287 0.65,0.673l9.728,12.141c0.384,0.465 0.744,0.932 1.442,1.704c0.358,0.313 0.455,0.337 1.32,0.337c0.218,0 0.241,-0.05 0.241,-0.207c0,-0.828 -0.023,-2.378 -0.023,-4.339l0,-9.894c-0.052,-2.609 0.311,-3.125 1.509,-3.18c0.648,0 0.842,-0.076 0.842,-0.256l0,-0.518c0.002,-0.228 -0.117,-0.255 -0.286,-0.255" id="svg_46"/>
   <path fill="#7c0040" d="m51.507,106.53035c0.196,0 0.315,-0.049 0.315,-0.285l0,-0.512c0,-0.156 -0.072,-0.235 -0.264,-0.235c-1.202,0 -1.995,-0.181 -1.995,-1.624l0,-12.996c0,-1.163 0.625,-1.552 1.731,-1.552c0.264,0 0.48,-0.025 0.48,-0.151l0,-0.724c0,-0.129 -0.12,-0.155 -0.312,-0.155c-0.601,0 -2.02,0.127 -3.651,0.127c-1.66,0 -3.054,-0.127 -3.389,-0.127c-0.167,0 -0.191,0.104 -0.191,0.254l0,0.599c0,0.129 0.168,0.178 0.36,0.178c1.151,0 1.778,0.155 1.778,1.552l0,12.995c0,1.393 -0.721,1.624 -1.85,1.624c-0.24,0 -0.336,0.079 -0.336,0.209l0,0.673c0,0.102 0.096,0.15 0.167,0.15c1.251,0 2.521,-0.128 3.77,-0.128c1.131,0 2.259,0.128 3.387,0.128" id="svg_47"/>
   <path fill="#7c0040" d="m70.798,88.29635c-0.601,0 -1.467,0.127 -2.068,0.127c-1.8,0 -2.401,-0.127 -2.999,-0.127c-0.194,0 -0.339,0.076 -0.339,0.257l0,0.518c0,0.131 0.047,0.256 0.192,0.256c1.155,0 1.921,0.026 1.921,0.883c0,0.591 -0.285,1.418 -0.502,2.012l-3.173,8.783c-0.095,0.286 -0.334,0.901 -0.429,0.901c-0.12,0 -0.168,-0.104 -0.338,-0.54l-3.073,-8.214c-0.768,-2.146 -1.031,-2.74 -1.031,-3.15c0,-0.648 0.887,-0.675 1.773,-0.675c0.193,0 0.242,-0.1 0.242,-0.256l0,-0.462c0,-0.209 -0.071,-0.312 -0.265,-0.312c-1.824,0 -2.907,0.127 -4.203,0.127c-1.226,0 -2.31,-0.127 -3.245,-0.127c-0.213,0 -0.288,0.076 -0.288,0.257l0,0.491c0,0.157 0.075,0.282 0.288,0.282c1.227,0 1.659,0.235 2.258,1.318c0.65,1.163 5.36,14.364 6.151,16.067c0.119,0.233 0.072,0.184 0.554,0.233l0.454,0c0.263,0 0.312,0 0.432,-0.337c1.921,-5.191 3.867,-10.408 5.862,-15.577c0.265,-0.671 0.528,-1.705 1.706,-1.705c0.265,0 0.336,-0.1 0.336,-0.334l0,-0.359c0,-0.181 -0.022,-0.337 -0.216,-0.337" id="svg_48"/>
   <path fill="#7c0040" d="m85.232,102.47835c-0.121,0 -0.217,0.052 -0.434,0.385l-0.744,1.212c-0.504,0.833 -0.696,1.297 -1.778,1.297l-3.292,0c-1.607,0 -1.897,-0.649 -1.897,-2.07l0,-5.938l2.308,0c1.008,0 1.706,-0.025 1.97,0.693c0.19,0.547 0.19,1.087 0.19,1.501c0,0.154 0.072,0.207 0.217,0.207l0.553,0c0.118,0 0.191,-0.155 0.191,-0.387c0,-0.801 -0.024,-1.627 -0.024,-2.326c0,-0.957 0.024,-1.91 0.024,-2.867c0,-0.1 -0.049,-0.183 -0.264,-0.183l-0.407,0c-0.122,0 -0.17,0.055 -0.195,0.183c-0.357,2.123 -1.15,2.017 -2.928,2.017l-1.634,0l0,-4.518c0,-2.095 0.29,-2.224 1.585,-2.224l2.285,0c1.581,0 2.209,0.309 2.353,2.297c0.024,0.39 0.048,0.516 0.166,0.516l0.481,0c0.193,0 0.313,-0.102 0.313,-0.283c0,-0.54 -0.023,-1.11 -0.023,-1.652c0,-0.568 0.023,-1.161 0.023,-1.728c0,-0.134 0,-0.312 -0.217,-0.312c-2.571,0 -5.166,0.127 -7.735,0.127c-1.224,-0.023 -3.123,-0.127 -4.083,-0.127c-0.24,0 -0.458,0 -0.458,0.254l0,0.521c0,0.256 0.17,0.256 0.412,0.256c0.744,0 1.703,0 1.703,1.346l0,2.558l0,10.251c0,1.707 -0.696,1.968 -1.395,2.019c-0.673,0.05 -0.815,0.101 -0.815,0.362l0,0.466c0,0.153 0.119,0.202 0.191,0.202c1.443,0 2.861,-0.128 4.299,-0.128c2.957,0 5.934,0.128 8.888,0.128c0.386,-1.288 0.698,-2.271 0.987,-3.278c0.048,-0.129 0.07,-0.258 0.07,-0.389c0.001,-0.285 -0.694,-0.388 -0.886,-0.388" id="svg_49"/>
   <path fill="#7c0040" d="m94.288,96.20335c-0.31,0 -0.649,0 -0.962,-0.027l0,-4.6c0,-1.164 0.075,-2.118 1.588,-2.118c2.067,0 3.003,1.474 3.003,3.41c0,2.273 -1.635,3.335 -3.629,3.335m10.737,9.294c-1.294,0 -2.042,-0.746 -2.69,-1.887l-2.425,-4.182c-0.623,-1.087 -1.372,-2.247 -2.354,-2.999c1.971,-0.358 3.843,-1.497 3.843,-3.769c0,-3.435 -3.266,-4.365 -4.805,-4.365c-2.015,0.052 -1.177,0 -3.867,0.127c-1.826,0 -3.578,-0.127 -4.659,-0.127c-0.122,0 -0.17,0.076 -0.17,0.231l0,0.623c0,0.1 0.048,0.176 0.143,0.176l0.772,0c1.104,0 1.32,0.725 1.32,3.335l0,9.97c0,2.404 -0.191,2.738 -1.992,2.866c-0.244,0.026 -0.292,0.233 -0.292,0.364l0,0.49c0,0.158 0.048,0.181 0.313,0.181c0.84,0 3.049,-0.129 4.061,-0.129c0.961,0 1.921,0.129 2.881,0.129c0.143,0 0.266,-0.022 0.266,-0.205l0,-0.619c0,-0.131 -0.048,-0.209 -0.194,-0.209c-1.082,0 -1.851,-0.41 -1.851,-2.581l0,-5.554c1.803,0 2.019,0.413 2.669,1.551l3.146,5.892c0.697,1.289 0.912,1.726 1.442,1.726c0.48,0 1.106,-0.129 1.706,-0.129c0.96,0 1.924,0.106 2.882,0.129l0,-0.882c0.001,-0.074 -0.044,-0.126 -0.145,-0.153" id="svg_50"/>
   <path fill="#7c0040" d="m107.954,91.86235c0,-1.889 1.322,-2.816 2.932,-2.816c1.944,0 2.906,1.394 3.221,3.461l1.08,0l0,-3.205c-0.411,-0.644 -2.545,-1.417 -4.085,-1.417c-3.098,0 -5.668,1.912 -5.668,5.474c0,6.048 8.262,4.959 8.262,9.455c0,1.938 -1.559,2.97 -3.504,2.97c-2.427,0 -3.292,-1.781 -3.894,-3.383l-0.959,0c0.119,1.162 0.264,2.322 0.359,3.485c1.394,0.773 2.93,1.061 4.468,1.061c3.172,0 6.052,-2.015 6.052,-5.656c-0.002,-6.33 -8.264,-5.014 -8.264,-9.429" id="svg_51"/>
   <path fill="#7c0040" d="m125.514,106.24535l0,-0.512c0,-0.157 -0.071,-0.235 -0.265,-0.235c-1.201,0 -1.993,-0.181 -1.993,-1.625l0,-12.994c0,-1.164 0.622,-1.553 1.728,-1.553c0.265,0 0.479,-0.025 0.479,-0.151l0,-0.724c0,-0.129 -0.119,-0.155 -0.311,-0.155c-0.6,0 -2.017,0.127 -3.65,0.127c-1.661,0 -3.05,-0.127 -3.391,-0.127c-0.166,0 -0.189,0.103 -0.189,0.254l0,0.599c0,0.129 0.166,0.178 0.359,0.178c1.153,0 1.778,0.155 1.778,1.553l0,12.993c0,1.394 -0.719,1.625 -1.849,1.625c-0.242,0 -0.336,0.078 -0.336,0.209l0,0.671c0,0.104 0.095,0.152 0.167,0.152c1.251,0 2.522,-0.128 3.774,-0.128c1.127,0 2.256,0.128 3.387,0.128c0.19,0 0.312,-0.049 0.312,-0.285" id="svg_52"/>
   <path fill="#7c0040" d="m161.163,88.29635c-0.386,0 -1.204,0.127 -2.595,0.127c-0.938,0 -1.754,-0.127 -2.308,-0.127c-0.166,0 -0.214,0.127 -0.214,0.283l0,0.413c0,0.181 0.072,0.334 0.287,0.334c0.77,0 1.539,0.026 1.539,0.47c0,0.36 -0.34,1.06 -0.867,1.91l-2.739,4.546l-3.169,-5.016c-0.481,-0.719 -0.792,-1.289 -0.792,-1.521c0,-0.334 0.672,-0.389 1.608,-0.389c0.219,0 0.314,-0.049 0.314,-0.256l0,-0.595c0,-0.128 -0.095,-0.18 -0.361,-0.18c-0.648,0 -1.707,0.127 -2.908,0.127c-1.584,0 -2.737,-0.127 -4.057,-0.127c-0.264,0 -0.359,0.127 -0.359,0.257l0,0.439c0,0.209 0.118,0.334 0.31,0.334c1.153,0 1.707,0.75 2.522,2.041l3.942,6.356c0.165,0.282 0.192,0.518 0.192,0.694l0,5.556c0,1.523 -1.396,1.523 -1.974,1.523c-0.143,0 -0.262,0.054 -0.262,0.26l0,0.57c0,0.153 0.099,0.203 0.238,0.203c1.106,0 2.092,-0.129 3.437,-0.129c1.465,0 2.62,0.129 3.819,0.129c0.145,0 0.241,-0.05 0.241,-0.232l0,-0.486c0,-0.183 -0.046,-0.312 -0.19,-0.312c-0.768,0 -2.113,-0.155 -2.113,-1.444l0,-5.864c0,-0.233 0.143,-0.465 0.501,-1.06l2.427,-4.082c0.338,-0.541 0.671,-1.086 1.007,-1.603c0.603,-0.903 1.416,-2.118 2.382,-2.118c0.238,0 0.333,-0.076 0.333,-0.256l0,-0.518c-0.002,-0.23 -0.073,-0.257 -0.191,-0.257" id="svg_53"/>
   <path fill="#7c0040" d="m223.35,103.28335c0.161,-0.644 0.322,-1.447 0.322,-1.608c0,-0.227 -0.902,-0.389 -1.126,-0.389c-0.164,0 -0.29,0.097 -0.418,0.322c-1.866,3.346 -2.188,3.509 -6.147,3.509c-3.252,0 -3.699,-0.806 -3.699,-2.802l0,-15.187c0,-1.676 1.189,-1.997 2.704,-1.997c0.287,0 0.321,-0.189 0.321,-0.352l0,-0.678c0,-0.159 -0.065,-0.259 -0.226,-0.259c-1.384,0 -2.799,0.165 -4.215,0.165c-3.122,0 -4.989,-0.165 -5.504,-0.165c-0.288,0 -0.386,0.131 -0.386,0.327l0,0.671c0,0.193 0.099,0.29 0.322,0.29c1.998,0 2.707,0.838 2.707,3.351l0,13.515c0,2.7 -0.485,3.279 -2.673,3.279c-0.257,0 -0.355,0.131 -0.355,0.354l0,0.708c0,0.16 0.13,0.222 0.259,0.222c2.477,0 6.531,-0.158 8.656,-0.158c2.09,0 5.696,0.158 8.593,0.158c0.254,-1.021 0.575,-2.119 0.865,-3.276" id="svg_54"/>
   <path fill="#7c0040" d="m232.021,105.49735c-1.293,0 -2.146,-0.183 -2.146,-1.624l0,-12.994c0,-1.164 0.672,-1.553 1.861,-1.553c0.285,0 0.516,-0.025 0.516,-0.153l0,-0.722c0,-0.129 -0.127,-0.155 -0.337,-0.155c-0.644,0 -2.168,0.127 -3.925,0.127c-1.781,0 -3.281,-0.127 -3.641,-0.127c-0.178,0 -0.208,0.103 -0.208,0.257l0,0.598c0,0.127 0.182,0.176 0.389,0.176c1.239,0 1.911,0.157 1.911,1.553l0,12.994c0,1.393 -0.776,1.624 -1.99,1.624c-0.258,0 -0.359,0.078 -0.359,0.209l0,0.671c0,0.104 0.101,0.153 0.179,0.153c1.345,0 2.713,-0.129 4.058,-0.129c1.213,0 2.427,0.129 3.642,0.129c0.205,0 0.334,-0.05 0.334,-0.286l0,-0.514c0.001,-0.155 -0.077,-0.234 -0.284,-0.234" id="svg_55"/>
   <path fill="#7c0040" d="m257.101,106.32835l0,-0.57c0,-0.159 -0.128,-0.232 -0.359,-0.258c-0.311,-0.027 -0.828,-0.104 -1.166,-0.233c-0.801,-0.335 -0.88,-1.551 -0.88,-3.641l0,-10.826c0,-1.061 0.132,-1.474 1.631,-1.474c0.309,0 0.513,-0.025 0.513,-0.23l0,-0.596c0,-0.178 -0.179,-0.204 -0.488,-0.204c-0.672,0 -1.809,0.127 -2.712,0.127c-0.981,0 -1.937,-0.127 -2.921,-0.127c-0.127,0.386 -0.258,0.853 -0.438,1.266c-1.601,3.614 -3.046,7.334 -4.649,10.951l-5.449,-12.217c-1.137,0.052 -2.327,0.127 -2.997,0.127c-0.436,0 -2.559,-0.127 -2.868,-0.127c-0.128,0 -0.156,0.026 -0.156,0.254l0,0.443c0,0.233 0.028,0.333 0.156,0.333c1.627,0 2.531,0.389 2.531,2.224c0,0.438 -0.024,0.879 -0.024,1.317l-0.261,6.924c-0.076,1.471 -0.204,2.919 -0.282,4.391c-0.053,1.06 -0.257,1.135 -1.423,1.267l-0.591,0.051c-0.208,0.025 -0.26,0.099 -0.26,0.233l0,0.617c0,0.16 0.155,0.18 0.466,0.18c0.983,0 1.731,-0.128 2.687,-0.128c0.98,0 1.913,0.128 2.583,0.128c0.287,0 0.439,-0.049 0.439,-0.202l0,-0.521c0,-0.18 -0.054,-0.282 -0.208,-0.308c-1.447,-0.209 -2.377,-0.412 -2.377,-2.04c0,-1.164 0.077,-2.3 0.132,-3.461l0.411,-7.907l0.055,0c2.036,4.858 4.391,9.583 5.966,14.646c0.051,0.13 0.128,0.209 0.412,0.209c0.104,0 0.335,0 0.388,-0.181c1.781,-5.348 3.72,-10.693 6.275,-15.729l0.05,0c0.106,1.704 0.106,3.249 0.106,11.726c0,2.35 -0.129,2.737 -2.401,2.737c-0.132,0 -0.155,0.099 -0.155,0.283l0,0.438c0,0.202 0,0.309 0.334,0.309c1.395,0 1.938,-0.128 4.21,-0.128c1.162,0 2.248,0.128 3.255,0.128c0.259,0.001 0.465,0.001 0.465,-0.201" id="svg_56"/>
   <path fill="#7c0040" d="m274.171,103.24935c0.053,-0.127 0.079,-0.257 0.079,-0.388c0,-0.282 -0.75,-0.384 -0.957,-0.384c-0.128,0 -0.233,0.05 -0.463,0.384l-0.804,1.213c-0.54,0.831 -0.748,1.295 -1.91,1.295l-3.537,0c-1.731,0 -2.042,-0.649 -2.042,-2.066l0,-5.94l2.481,0c1.084,0 1.832,-0.025 2.116,0.695c0.208,0.545 0.208,1.085 0.208,1.499c0,0.158 0.075,0.207 0.233,0.207l0.591,0c0.128,0 0.207,-0.155 0.207,-0.387c0,-0.801 -0.028,-1.627 -0.028,-2.324c0,-0.959 0.028,-1.912 0.028,-2.869c0,-0.101 -0.05,-0.18 -0.284,-0.18l-0.44,0c-0.128,0 -0.182,0.051 -0.207,0.18c-0.388,2.12 -1.239,2.019 -3.148,2.019l-1.757,0l0,-4.52c0,-2.096 0.311,-2.226 1.703,-2.226l2.452,0c1.708,0 2.378,0.311 2.534,2.301c0.025,0.389 0.051,0.516 0.179,0.516l0.518,0c0.208,0 0.336,-0.104 0.336,-0.285c0,-0.542 -0.027,-1.109 -0.027,-1.652c0,-0.568 0.027,-1.163 0.027,-1.729c0,-0.132 0,-0.311 -0.234,-0.311c-2.762,0 -5.551,0.127 -8.316,0.127c-1.319,-0.024 -3.357,-0.127 -4.39,-0.127c-0.26,0 -0.491,0 -0.491,0.254l0,0.521c0,0.256 0.182,0.256 0.439,0.256c0.802,0 1.837,0 1.837,1.346l0,2.556l0,10.25c0,1.708 -0.752,1.969 -1.5,2.018c-0.722,0.054 -0.879,0.101 -0.879,0.364l0,0.466c0,0.153 0.128,0.202 0.204,0.202c1.554,0 3.077,-0.128 4.625,-0.128c3.178,0 6.381,0.128 9.558,0.128c0.412,-1.288 0.749,-2.273 1.059,-3.281" id="svg_57"/>
   <path fill="#7c0040" d="m293.572,106.53035l0,0c-0.015,0 -0.031,0 -0.045,0l0.045,0z" id="svg_58"/>
   <path fill="#7c0040" d="m281.87,96.20335c-0.333,0 -0.697,0 -1.031,-0.029l0,-4.598c0,-1.165 0.076,-2.118 1.705,-2.118c2.218,0 3.227,1.474 3.227,3.41c-0.001,2.273 -1.757,3.335 -3.901,3.335m11.388,10.174l0,-0.671c0,-0.099 0.058,-0.166 0.198,-0.196c-0.014,-0.003 -0.023,-0.01 -0.04,-0.013c-1.396,0 -2.195,-0.747 -2.892,-1.887l-2.609,-4.183c-0.67,-1.086 -1.474,-2.25 -2.531,-2.996c2.118,-0.36 4.133,-1.499 4.133,-3.773c0,-3.432 -3.514,-4.362 -5.168,-4.362c-2.169,0.052 -1.262,0 -4.159,0.127c-1.96,0 -3.847,-0.127 -5.008,-0.127c-0.131,0 -0.182,0.077 -0.182,0.231l0,0.621c0,0.102 0.051,0.178 0.156,0.178l0.829,0c1.189,0 1.418,0.725 1.418,3.332l0,9.973c0,2.404 -0.207,2.738 -2.143,2.866c-0.26,0.027 -0.311,0.235 -0.311,0.364l0,0.49c0,0.156 0.051,0.178 0.335,0.178c0.905,0 3.281,-0.128 4.367,-0.128c1.032,0 2.066,0.128 3.1,0.128c0.153,0 0.283,-0.021 0.283,-0.202l0,-0.621c0,-0.131 -0.05,-0.209 -0.207,-0.209c-1.164,0 -1.987,-0.41 -1.987,-2.58l0,-5.555c1.936,0 2.168,0.413 2.867,1.551l3.384,5.889c0.747,1.292 0.981,1.728 1.547,1.728c0.519,0 1.189,-0.128 1.833,-0.128c0.976,0 1.95,0.09 2.924,0.123c-0.065,-0.014 -0.137,-0.061 -0.137,-0.148" id="svg_59"/>
   <path fill="#7c0040" d="m301.189,105.49735c-1.29,0 -2.145,-0.183 -2.145,-1.624l0,-12.994c0,-1.164 0.672,-1.553 1.858,-1.553c0.287,0 0.519,-0.025 0.519,-0.153l0,-0.722c0,-0.129 -0.132,-0.155 -0.339,-0.155c-0.646,0 -2.168,0.127 -3.925,0.127c-1.781,0 -3.28,-0.127 -3.64,-0.127c-0.181,0 -0.207,0.103 -0.207,0.257l0,0.598c0,0.127 0.179,0.176 0.387,0.176c1.237,0 1.912,0.157 1.912,1.553l0,12.994c0,1.393 -0.777,1.624 -1.99,1.624c-0.064,0 -0.117,0.006 -0.164,0.013c0.076,0.03 0.117,0.079 0.117,0.14l0,0.878c1.3,-0.008 2.624,-0.126 3.922,-0.126c1.216,0 2.428,0.129 3.642,0.129c0.208,0 0.333,-0.05 0.333,-0.286l0,-0.514c0.001,-0.156 -0.076,-0.235 -0.28,-0.235" id="svg_60"/>
   <path fill="#7c0040" d="m293.438,106.53035l0.088,0c-0.041,0 -0.088,-0.005 -0.133,-0.005c0.02,0 0.033,0.005 0.045,0.005" id="svg_61"/>
   <path fill="#7c0040" d="m293.455,105.51035c-0.14,0.03 -0.198,0.098 -0.198,0.196l0,0.671c0,0.087 0.072,0.134 0.137,0.147c0.043,0 0.089,0.005 0.132,0.005c0.014,0 0.03,0 0.045,0l0,-0.877c0.001,-0.063 -0.041,-0.112 -0.116,-0.142" id="svg_62"/>
   <path fill="#7c0040" d="m319.033,101.52435c-0.205,0 -0.334,0.516 -0.413,0.668c-1.239,2.583 -2.477,3.458 -5.423,3.458c-4.52,0 -7.334,-4.155 -7.334,-8.367c0,-4.236 2.503,-8.109 7.074,-8.109c3.078,0 4.16,1.784 5.556,4.185l0.802,-0.203c0.13,-0.031 0.154,-0.079 0.154,-0.156c0,-0.183 -0.284,-2.223 -0.438,-3.308c-0.025,-0.128 -0.232,-0.285 -0.519,-0.44c-1.678,-0.928 -3.849,-1.366 -5.734,-1.366c-5.215,0 -10.769,3.51 -10.769,9.194c0,6.457 4.829,9.867 10.925,9.867c2.195,0 4.21,-0.438 6.229,-1.318l0.774,-3.048c0.074,-0.28 0.126,-0.54 0.126,-0.619c-0.001,-0.236 -0.801,-0.438 -1.01,-0.438" id="svg_63"/>
   <path fill="#7c0040" d="m339.309,105.49735c-1.007,0 -1.73,-0.361 -2.481,-1.548c-1.059,-1.681 -2.194,-3.307 -3.253,-4.959l-2.999,-4.65l4.186,-4.391c0.567,-0.568 1.37,-0.623 2.349,-0.623c0.232,0 0.287,-0.1 0.287,-0.256l0,-0.543c0,-0.18 -0.132,-0.231 -0.363,-0.231c-0.8,0 -2.247,0.127 -3.59,0.127c-1.186,0 -2.017,-0.127 -2.504,-0.127c-0.155,0 -0.284,0.052 -0.284,0.257l0,0.491c0,0.183 0.05,0.282 0.231,0.282c1.165,0.055 1.807,0.029 1.807,0.645c0,1.14 -4.958,5.609 -6.016,6.562l0,-5.37c0,-1.679 0.515,-1.836 1.883,-1.836c0.261,0 0.389,-0.049 0.389,-0.229l0,-0.544c0,-0.181 -0.079,-0.257 -0.283,-0.257c-1.164,0 -2.453,0.127 -3.719,0.127c-1.035,0 -2.503,-0.127 -3.67,-0.127c-0.208,0 -0.335,0.052 -0.335,0.257l0,0.466c0,0.208 0.053,0.308 0.257,0.308c1.472,0 2.04,0.131 2.04,2.145l0,12.377c0,1.444 -0.697,1.649 -1.938,1.649c-0.307,0 -0.385,0.13 -0.385,0.26l0,0.487c0,0.133 0.078,0.286 0.283,0.286c0.802,0 1.783,-0.129 3.462,-0.129c1.241,0 2.452,0.129 3.977,0.129c0.208,0 0.288,-0.022 0.288,-0.153l0,-0.646c0,-0.207 -0.105,-0.233 -0.234,-0.233c-1.113,0 -2.015,-0.024 -2.015,-1.649l0,-5.893l1.318,-0.979l4.416,6.945c0.232,0.335 0.517,0.776 0.517,1.113c0,0.36 -0.646,0.438 -1.732,0.462c-0.155,0 -0.206,0.13 -0.206,0.233l0,0.545c0,0.205 0.103,0.255 0.283,0.255c0.751,0 1.677,-0.129 3.257,-0.129c1.524,0 3.147,0.129 4.802,0.129c0.133,0 0.208,-0.107 0.208,-0.23l0,-0.543c0,-0.132 -0.026,-0.262 -0.233,-0.262" id="svg_64"/>
   <path fill="#7c0040" d="m177.462,101.34235c-0.304,0.334 -1.09,1.246 -2.614,1.246c-1.776,0 -2.133,-1.675 -2.133,-2.739c0,-2.917 1.851,-8.074 5.151,-8.074c1.778,0 2.209,1.576 2.209,2.792c0.002,1.851 -0.911,4.771 -2.613,6.775m4.999,-5.273c0,-3.072 -2.512,-4.848 -4.62,-4.848c-3.808,0 -7.513,3.247 -7.513,7.002c0,2.716 1.928,4.926 4.468,4.926c3.096,0 7.665,-2.718 7.665,-7.08" id="svg_65"/>
   <path fill="#7c0040" d="m193.728,88.70835c0.556,0 1.166,-0.435 1.166,-1.118c0,-0.809 -0.862,-1.291 -1.877,-1.291c-1.603,0 -3.172,0.937 -4.135,1.85c-1.144,1.039 -1.577,2.283 -1.954,3.375l-1.854,0c-0.307,0 -0.434,0.609 -0.434,0.609c0,0.1 0.029,0.229 0.179,0.229l1.853,0c-1.521,5.049 -1.905,6.467 -3.374,11.95c-0.333,1.243 -0.941,3.53 -1.956,3.53c-0.429,0 -0.609,-0.508 -0.686,-0.762c-0.176,-0.507 -0.381,-1.093 -1.193,-1.093c-0.66,0 -1.09,0.485 -1.09,1.07c0,0.808 0.911,1.548 2.158,1.548c1.167,0 2.183,-0.512 3.02,-1.17c1.623,-1.294 1.927,-2.134 4.618,-11.804l0.915,-3.271l2.436,0c0.277,0 0.406,-0.48 0.406,-0.606c0,-0.104 -0.026,-0.231 -0.176,-0.231l-2.413,0c0.354,-1.345 1.168,-4.34 2.311,-4.34c0.278,0 0.429,0.254 0.607,0.559c0.534,0.889 1.296,0.966 1.473,0.966" id="svg_66"/>
   <path fill="#7c0040" d="m139.081,105.48935c-1.322,0 -1.972,-0.516 -1.972,-2.428l0.01,-13.486l2.921,0c1.419,0 1.946,1.683 2.38,2.399c0.071,0.132 0.144,0.183 0.262,0.183c0.602,0 0.697,-0.075 0.697,-0.412c0,-0.207 -0.478,-3.1 -0.6,-4.419c0,-0.128 -0.071,-0.178 -0.169,-0.178l-0.792,0c-0.262,0.595 -0.768,1.135 -1.632,1.135l-9.321,0c-0.866,0 -1.369,-0.54 -1.634,-1.135l-0.792,0c-0.097,0 -0.169,0.05 -0.169,0.178c-0.121,1.319 -0.602,4.212 -0.602,4.419c0,0.337 0.098,0.412 0.699,0.412c0.117,0 0.189,-0.051 0.266,-0.183c0.431,-0.717 0.958,-2.399 2.373,-2.399l2.909,0l0,13.643c0,1.859 -0.312,2.271 -2.087,2.271c-0.169,0 -0.219,0.129 -0.219,0.338l0,0.488c0,0.184 0.168,0.207 0.432,0.207c0.7,0 1.49,-0.126 2.955,-0.126c1.298,0 3.534,0.126 4.111,0.126c0.189,0 0.311,-0.023 0.311,-0.178l0,-0.622c-0.002,-0.154 -0.124,-0.233 -0.337,-0.233" id="svg_67"/>
  </g>
  <g id="svg_1">
   <path fill="#7c0040" d="m49.8185,121.95806c-0.896,0 -1.541,-0.707 -1.93,-1.448c-0.377,-0.738 -0.549,-1.591 -0.549,-2.42c0,-1.239 0.486,-3.219 2.044,-3.219c1.799,0 2.478,2.408 2.478,3.849c0,1.244 -0.472,3.238 -2.043,3.238m-0.362,-7.515c-1.153,0 -2.177,0.381 -3.001,1.193c-0.768,0.742 -1.23,1.751 -1.23,2.819c0,1.107 0.501,2.26 1.387,2.957c0.801,0.632 2.053,0.982 3.062,0.982c2.273,0 4.28,-1.629 4.28,-3.986c0,-2.481 -2.187,-3.965 -4.498,-3.965" id="svg_69"/>
   <path fill="#7c0040" d="m68.5005,120.26705c-0.486,0 -0.512,1.483 -2.275,1.483c-0.874,0 -0.972,-0.475 -0.972,-1.118l0,-4.329c0,-0.81199 -0.061,-1.055 0.768,-1.191c0.145,-0.023 0.338,-0.048 0.338,-0.23699c0,-0.196 -0.133,-0.23601 -0.301,-0.23601c-0.575,0 -1.155,0.053 -1.739,0.053c-0.633,0 -1.241,-0.053 -1.873,-0.053c-0.171,0 -0.291,0.04001 -0.291,0.23601c0,0.203 0.244,0.21399 0.388,0.23699c0.778,0.137 0.707,0.45 0.707,1.191l0,4.329c0,0.793 0.036,0.986 -0.768,1.118c-0.145,0.025 -0.326,0.111 -0.326,0.306c0,0.182 0.12,0.20501 0.291,0.20501c0.946,0 1.921,-0.049 2.869,-0.049c0.924,0 1.848,0.049 2.772,0.049c0.291,0 0.424,0.085 0.449,-0.254c0.037,-0.488 0.193,-0.985 0.193,-1.46c-0.001,-0.172 -0.038,-0.28 -0.23,-0.28" id="svg_70"/>
   <path fill="#7c0040" d="m83.0785,120.26705c-0.485,0 -0.511,1.483 -2.274,1.483c-0.874,0 -0.972,-0.475 -0.972,-1.118l0,-4.329c0,-0.81199 -0.061,-1.055 0.767,-1.191c0.146,-0.023 0.338,-0.048 0.338,-0.23699c0,-0.196 -0.133,-0.23601 -0.302,-0.23601c-0.572,0 -1.154,0.053 -1.739,0.053c-0.633,0 -1.238,-0.053 -1.873,-0.053c-0.171,0 -0.292,0.04001 -0.292,0.23601c0,0.203 0.244,0.21399 0.391,0.23699c0.777,0.137 0.705,0.45 0.705,1.191l0,4.329c0,0.793 0.035,0.986 -0.766,1.118c-0.147,0.025 -0.329,0.111 -0.329,0.306c0,0.182 0.121,0.20501 0.292,0.20501c0.949,0 1.921,-0.049 2.869,-0.049c0.925,0 1.847,0.049 2.774,0.049c0.289,0 0.422,0.085 0.448,-0.254c0.037,-0.488 0.192,-0.985 0.192,-1.46c0,-0.172 -0.035,-0.28 -0.229,-0.28" id="svg_71"/>
   <path fill="#7c0040" d="m94.9465,117.30305l-0.62,-0.209c-0.52,-0.169 -1.116,-0.412 -1.116,-1.053c0,-0.70999 0.741,-1.101 1.375,-1.101c0.802,0 1.166,0.64701 1.396,1.32801c0.046,0.15399 0.12,0.328 0.328,0.328c0.27,0 0.243,-0.271 0.243,-0.462l0,-0.824c0,-0.23301 0.037,-0.425 -0.194,-0.55c-0.377,-0.193 -1.157,-0.318 -1.583,-0.318c-1.396,0 -3.159,0.852 -3.159,2.46c0,1.21299 1.18,1.76 2.139,2.161c0.756,0.302 1.812,0.598 1.812,1.581c0,0.873 -0.886,1.29 -1.655,1.29c-0.446,0 -0.919,-0.113 -1.26,-0.438c-0.293,-0.294 -0.376,-0.621 -0.488,-1.009c-0.062,-0.209 -0.122,-0.572 -0.414,-0.572c-0.291,0 -0.243,0.458 -0.243,0.657l0,0.667c0,0.4 -0.035,0.56 0.354,0.754c0.521,0.254 1.471,0.401 2.051,0.401c0.818,0 1.609,-0.205 2.239,-0.731c0.572,-0.485 0.972,-1.176 0.972,-1.94c-0.001,-1.415 -0.959,-2.033 -2.177,-2.42" id="svg_72"/>
   <path fill="#7c0040" d="m113.0865,120.08805c-0.159,0 -0.246,0.12 -0.308,0.254c-0.216,0.41 -0.435,0.813 -0.8,1.11601c-0.363,0.292 -0.802,0.466 -1.276,0.466c-0.875,0 -1.606,-0.499 -2.068,-1.219c-0.424,-0.67 -0.604,-1.545 -0.604,-2.335c0,-0.803 0.192,-1.688 0.666,-2.355c0.463,-0.645 1.203,-1.097 2.006,-1.097c1.642,0 1.676,1.447 2.236,1.447c0.133,0 0.23,-0.074 0.23,-0.204c0,-0.12 -0.023,-0.234 -0.046,-0.354l-0.098,-0.621c-0.061,-0.341 -0.061,-0.388 -0.393,-0.484c-0.556,-0.157 -1.25,-0.259 -1.82,-0.259c-1.166,0 -2.466,0.331 -3.414,1.023c-0.964,0.719 -1.569,1.813 -1.569,3.013c0,1.17 0.619,2.325 1.542,3.018c0.875,0.653 2.128,0.898 3.198,0.898c0.79,0 1.653,-0.147 2.333,-0.561c0.376,-0.215 0.367,-0.376 0.39,-0.776l0.035,-0.51c0.013,-0.183 0.025,-0.46 -0.24,-0.46" id="svg_73"/>
   <path fill="#7c0040" d="m126.5145,121.95806c-0.899,0 -1.546,-0.707 -1.934,-1.448c-0.374,-0.738 -0.545,-1.591 -0.545,-2.42c0,-1.239 0.484,-3.219 2.041,-3.219c1.8,0 2.48,2.408 2.48,3.849c0,1.244 -0.475,3.238 -2.042,3.238m-0.367,-7.515c-1.154,0 -2.173,0.381 -3,1.193c-0.766,0.742 -1.227,1.751 -1.227,2.819c0,1.107 0.497,2.26 1.383,2.957c0.804,0.632 2.055,0.982 3.065,0.982c2.274,0 4.278,-1.629 4.278,-3.986c0.001,-2.481 -2.187,-3.965 -4.499,-3.965" id="svg_74"/>
   <path fill="#7c0040" d="m142.8565,115.11505c0.144,-0.023 0.34,-0.051 0.34,-0.24299c0,-0.193 -0.134,-0.231 -0.304,-0.231c-0.571,0 -1.156,0.051 -1.737,0.051c-0.634,0 -1.241,-0.051 -1.873,-0.051c-0.17,0 -0.292,0.038 -0.292,0.231c0,0.20499 0.246,0.21999 0.39,0.24299c0.777,0.134 0.704,0.447 0.704,1.188l0,4.31601c0,0.79299 0.037,1 -0.767,1.13099c-0.146,0.024 -0.327,0.084 -0.327,0.283c0,0.179 0.122,0.228 0.292,0.228c0.584,0 1.165,-0.049 1.748,-0.049c0.635,0 1.241,0.049 1.873,0.049c0.159,0 0.293,-0.049 0.293,-0.228c0,-0.221 -0.23,-0.259 -0.39,-0.283c-0.764,-0.12 -0.718,-0.412 -0.718,-1.131l0,-4.316c0,-0.812 -0.058,-1.055 0.768,-1.188" id="svg_75"/>
   <path fill="#7c0040" d="m157.7635,120.26705c-0.486,0 -0.512,1.483 -2.275,1.483c-0.874,0 -0.973,-0.475 -0.973,-1.118l0,-4.329c0,-0.81199 -0.058,-1.055 0.767,-1.191c0.146,-0.023 0.341,-0.048 0.341,-0.23699c0,-0.196 -0.135,-0.23601 -0.307,-0.23601c-0.569,0 -1.154,0.053 -1.739,0.053c-0.629,0 -1.237,-0.053 -1.871,-0.053c-0.169,0 -0.293,0.04001 -0.293,0.23601c0,0.203 0.247,0.21399 0.39,0.23699c0.78,0.137 0.707,0.45 0.707,1.191l0,4.329c0,0.793 0.035,0.986 -0.767,1.118c-0.147,0.025 -0.33,0.111 -0.33,0.306c0,0.182 0.124,0.20501 0.293,0.20501c0.948,0 1.923,-0.049 2.869,-0.049c0.924,0 1.849,0.049 2.772,0.049c0.291,0 0.425,0.085 0.451,-0.254c0.036,-0.488 0.195,-0.985 0.195,-1.46c0.001,-0.172 -0.037,-0.28 -0.23,-0.28" id="svg_76"/>
   <path fill="#7c0040" d="m183.4505,120.26705c-0.485,0 -0.511,1.483 -2.273,1.483c-0.875,0 -0.971,-0.475 -0.971,-1.118l0,-4.329c0,-0.81199 -0.062,-1.055 0.766,-1.191c0.143,-0.023 0.34,-0.048 0.34,-0.23699c0,-0.196 -0.135,-0.23601 -0.305,-0.23601c-0.572,0 -1.155,0.053 -1.738,0.053c-0.633,0 -1.24,-0.053 -1.871,-0.053c-0.172,0 -0.294,0.04001 -0.294,0.23601c0,0.203 0.246,0.21399 0.393,0.23699c0.775,0.137 0.7,0.45 0.7,1.191l0,4.329c0,0.793 0.039,0.986 -0.764,1.118c-0.145,0.025 -0.329,0.111 -0.329,0.306c0,0.182 0.122,0.20501 0.294,0.20501c0.945,0 1.92,-0.049 2.867,-0.049c0.923,0 1.848,0.049 2.772,0.049c0.292,0 0.422,0.085 0.45,-0.254c0.038,-0.488 0.194,-0.985 0.194,-1.46c0,-0.172 -0.036,-0.28 -0.231,-0.28" id="svg_77"/>
   <path fill="#7c0040" d="m200.1075,114.64006c-0.366,0 -0.73,0.02299 -1.08,0.02299c-0.364,0 -0.729,-0.02299 -1.096,-0.02299c-0.182,0 -0.412,0 -0.412,0.24599c0,0.276 0.279,0.202 0.476,0.226c0.266,0.039 0.509,0.1 0.646,0.354c0.119,0.26 0.105,0.708 0.105,0.972l0,3.088c0,0.598 0.026,1.17 -0.372,1.664c-0.404,0.522 -1.085,0.684 -1.722,0.684c-0.712,0 -1.431,-0.27 -1.712,-0.986c-0.181,-0.424 -0.168,-1.41 -0.168,-1.908l0,-2.675c0,-0.812 -0.059,-1.055 0.767,-1.191c0.144,-0.023 0.339,-0.048 0.339,-0.237c0,-0.196 -0.134,-0.234 -0.305,-0.234c-0.569,0 -1.156,0.051 -1.735,0.051c-0.633,0 -1.242,-0.051 -1.874,-0.051c-0.173,0 -0.292,0.038 -0.292,0.234c0,0.203 0.242,0.214 0.389,0.237c0.779,0.137 0.707,0.45 0.707,1.191l0,3.318c0,0.938 0.12,1.692 0.995,2.227c0.68,0.413 1.631,0.547 2.431,0.547c0.865,0 1.737,-0.159 2.422,-0.707c0.727,-0.598 0.712,-1.323 0.712,-2.163l0,-3.161c0,-0.218 0.015,-0.641 0.076,-0.863c0.094,-0.303 0.266,-0.352 0.545,-0.391c0.182,-0.023 0.438,0.014 0.438,-0.226c0,-0.174 -0.133,-0.246 -0.28,-0.246" id="svg_78"/>
   <path fill="#7c0040" d="m212.2235,115.11505c0.146,-0.023 0.337,-0.051 0.337,-0.24299c0,-0.193 -0.128,-0.231 -0.299,-0.231c-0.572,0 -1.157,0.051 -1.741,0.051c-0.631,0 -1.24,-0.051 -1.873,-0.051c-0.167,0 -0.29,0.038 -0.29,0.231c0,0.20499 0.242,0.21999 0.389,0.24299c0.778,0.134 0.704,0.447 0.704,1.188l0,4.31601c0,0.79299 0.037,1 -0.766,1.13099c-0.147,0.024 -0.328,0.084 -0.328,0.283c0,0.179 0.122,0.228 0.29,0.228c0.584,0 1.168,-0.049 1.75,-0.049c0.631,0 1.24,0.049 1.873,0.049c0.161,0 0.289,-0.049 0.289,-0.228c0,-0.221 -0.227,-0.259 -0.386,-0.283c-0.767,-0.12 -0.718,-0.412 -0.718,-1.131l0,-4.316c0.001,-0.812 -0.057,-1.055 0.769,-1.188" id="svg_79"/>
   <path fill="#7c0040" d="m230.2695,121.76305c-0.208,-0.013 -0.363,-0.052 -0.46,-0.256c-0.1,-0.217 -0.114,-0.621 -0.124,-0.853l-0.133,-4.543c-0.011,-0.476 -0.071,-0.963 0.509,-0.997c0.186,-0.014 0.499,0.023 0.499,-0.22c0,-0.217 -0.167,-0.255 -0.351,-0.255l-2.347,0c-0.231,0 -0.254,0.246 -0.326,0.42401l-1.825,4.33799l-1.886,-4.432c-0.097,-0.22 -0.083,-0.33 -0.338,-0.33l-2.263,0c-0.194,0 -0.472,0 -0.472,0.255c0,0.243 0.34,0.206 0.521,0.22c0.621,0.034 0.549,0.289 0.521,0.837l-0.24,4.888c-0.027,0.45101 0.024,0.84901 -0.51,0.924c-0.182,0.022 -0.511,0.036 -0.511,0.28201c0,0.18999 0.145,0.214 0.303,0.214c0.368,0 0.73,-0.023 1.104,-0.023c0.367,0 0.729,0.023 1.099,0.023c0.154,0 0.362,-0.047 0.362,-0.25201c0,-0.296 -0.398,-0.268 -0.584,-0.268c-0.692,0 -0.692,-0.537 -0.667,-1.095l0.157,-4.22l2.262,5.36001c0.086,0.222 0.132,0.388 0.387,0.388c0.379,0 0.417,-0.325 0.513,-0.61601l2.15,-5.217l0.084,4.54601c0.015,0.464 0.028,0.793 -0.533,0.854c-0.206,0.023 -0.56,0.011 -0.56,0.306c0,0.202 0.195,0.214 0.354,0.214c0.52,0 1.033,-0.047 1.541,-0.047c0.61,0 1.189,0.047 1.799,0.047c0.17,0 0.438,0 0.438,-0.239c0.001,-0.245 -0.302,-0.245 -0.473,-0.257" id="svg_80"/>
   <path fill="#7c0040" d="m247.4125,114.64006c-0.354,0 -0.72,0.02299 -1.072,0.02299c-0.365,0 -0.718,-0.02299 -1.082,-0.02299c-0.181,0 -0.448,0 -0.448,0.25499c0,0.268 0.253,0.193 0.462,0.217c0.28,0.039 0.522,0.125 0.653,0.414c0.1,0.219 0.1,0.622 0.1,0.865l0,2.955l-3.476,-4.305c-0.306,-0.378 -0.27,-0.401 -0.753,-0.401l-2.143,0c-0.167,0 -0.413,0 -0.413,0.216c0,0.27 0.281,0.245 0.477,0.256c0.605,0.039 0.558,0.588 0.558,1.062l0,3.778c0,0.413 0.024,1.058 -0.109,1.434c-0.1,0.27 -0.246,0.354 -0.513,0.365c-0.192,0.013 -0.498,-0.012 -0.498,0.257c0,0.191 0.159,0.254 0.331,0.254c0.376,0 0.764,-0.049 1.153,-0.049c0.392,0 0.752,0.049 1.142,0.049c0.172,0 0.366,-0.049 0.366,-0.254c0,-0.269 -0.338,-0.244 -0.512,-0.257c-0.327,-0.022 -0.581,-0.096 -0.705,-0.461c-0.085,-0.256 -0.085,-0.888 -0.085,-1.178l0,-4.012l4.799,5.99c0.174,0.219 0.331,0.474 0.634,0.474c0.413,0 0.352,-0.217 0.352,-0.557l0,-5.764c0,-0.47499 -0.071,-1.058 0.5,-1.132c0.204,-0.023 0.619,0.062 0.619,-0.226c0.001,-0.207 -0.157,-0.245 -0.337,-0.245" id="svg_81"/>
   <path fill="#7c0040" d="m259.8835,115.11505c0.147,-0.023 0.339,-0.051 0.339,-0.24299c0,-0.193 -0.13,-0.231 -0.299,-0.231c-0.571,0 -1.157,0.051 -1.737,0.051c-0.635,0 -1.24,-0.051 -1.873,-0.051c-0.171,0 -0.291,0.038 -0.291,0.231c0,0.20499 0.241,0.21999 0.389,0.24299c0.775,0.134 0.7,0.447 0.7,1.188l0,4.31601c0,0.79299 0.04,1 -0.761,1.13099c-0.148,0.024 -0.328,0.084 -0.328,0.283c0,0.179 0.12,0.228 0.291,0.228c0.581,0 1.166,-0.049 1.746,-0.049c0.634,0 1.243,0.049 1.876,0.049c0.156,0 0.287,-0.049 0.287,-0.228c0,-0.221 -0.226,-0.259 -0.387,-0.283c-0.761,-0.12 -0.716,-0.412 -0.716,-1.131l0,-4.316c0,-0.812 -0.06,-1.055 0.764,-1.188" id="svg_82"/>
   <path fill="#7c0040" d="m276.8185,118.42006l-0.486,0.046l-2.845,0c-0.195,0 -0.488,0.013 -0.488,0.282c0,0.206 0.174,0.257 0.342,0.257c0.279,0.011 0.61,-0.013 0.794,0.239c0.165,0.245 0.131,0.791 0.131,1.084l0,0.509c0,0.221 0.011,0.646 -0.123,0.826c-0.132,0.185 -0.596,0.232 -0.802,0.232c-1.909,0 -2.626,-1.918 -2.626,-3.536c0,-0.779 0.182,-1.665 0.619,-2.318c0.453,-0.662 1.17,-1.099 1.995,-1.099c1.68,0 1.567,1.448 2.151,1.448c0.186,0 0.279,-0.1 0.279,-0.281c0,-0.183 -0.048,-0.41 -0.083,-0.596c-0.111,-0.716 -0.01,-0.682 -0.667,-0.836c-0.55,-0.134 -1.069,-0.235 -1.63,-0.235c-2.395,0 -4.862,1.51 -4.862,4.122c0,1.182 0.557,2.288 1.53,2.954c0.889,0.62 2.143,0.876 3.223,0.876c0.716,0 1.516,-0.109 2.187,-0.388c0.233,-0.111 0.813,-0.413 0.813,-0.729c0,-0.158 -0.024,-0.31601 -0.034,-0.466l-0.062,-1.104c-0.023,-0.548 0.049,-0.632 0.562,-0.741c0.166,-0.037 0.374,-0.075 0.374,-0.303c-0.001,-0.184 -0.121,-0.243 -0.292,-0.243" id="svg_83"/>
   <path fill="#7c0040" d="m293.9725,115.18605c0.146,-0.023 0.341,-0.043 0.344,-0.239c0,-0.193 -0.131,-0.232 -0.3,-0.234c-0.574,-0.011 -1.154,0.026 -1.741,0.021c-0.628,-0.014 -1.235,-0.069 -1.871,-0.078c-0.167,-0.006 -0.291,0.03 -0.291,0.222c-0.007,0.207 0.235,0.225 0.383,0.249c0.774,0.148 0.696,0.463 0.686,1.205l-0.02,1.177c-0.007,0.452 0.005,0.441 -0.412,0.434l-2.161,-0.036c-0.427,-0.008 -0.435,-0.008 -0.431,-0.446l0.02,-1.18c0.015,-0.812 -0.044,-1.056 0.788,-1.178c0.145,-0.021 0.339,-0.042 0.344,-0.233c0,-0.2 -0.13,-0.235 -0.302,-0.239c-0.569,-0.009 -1.155,0.029 -1.739,0.021c-0.631,-0.011 -1.238,-0.07 -1.869,-0.08c-0.172,-0.001 -0.294,0.03 -0.297,0.229c-0.003,0.205 0.239,0.217 0.387,0.248c0.772,0.144 0.694,0.462 0.684,1.202l-0.074,4.313c-0.01,0.79 0.022,0.995 -0.784,1.117c-0.145,0.022 -0.329,0.081 -0.332,0.276c-0.003,0.181 0.119,0.232 0.287,0.236c0.586,0.008 1.169,-0.031 1.754,-0.021c0.632,0.009 1.241,0.068 1.872,0.077c0.158,0.004 0.292,-0.04 0.295,-0.224c0.003,-0.219 -0.227,-0.261 -0.388,-0.28399c-0.761,-0.13701 -0.706,-0.427 -0.695,-1.14301l0.027,-1.703c0.01,-0.501 -0.027,-0.452 0.482,-0.44499l2.163,0.042c0.328,0.003 0.353,-0.035 0.358,0.292l-0.028,1.862c-0.013,0.78899 0.021,0.996 -0.785,1.11799c-0.146,0.022 -0.327,0.07901 -0.33,0.272c-0.005,0.186 0.119,0.232 0.285,0.236c0.584,0.01 1.169,-0.026 1.754,-0.021c0.627,0.013 1.234,0.07 1.868,0.082c0.157,0.003 0.291,-0.046 0.294,-0.229c0.003,-0.218 -0.225,-0.259 -0.385,-0.286c-0.763,-0.134 -0.709,-0.424 -0.7,-1.141l0.074,-4.313c0.014,-0.819 -0.044,-1.059 0.786,-1.178" id="svg_84"/>
  </g>
 </g>
</svg>